<?xml version="1.0" encoding="utf-8"?>
<svg version="1.1" id="Layer_1" xmlns="http://www.w3.org/2000/svg" x="0px" y="0px" viewBox="0 0 360 144" style="enable-background:new 0 0 360 144;">
  <style type="text/css">
	.st0{fill:#00B050;}
</style>
  <g>
    <g>
      <g>
        <path class="st0" d="M40.3,50.5c3.4,0,6.5,0.1,9.6,0.1c5.2,0,9.3,0,12.2-0.1c-0.3,3.4-0.6,8.1-1,14.3 c-0.3,6.1-0.5,10.8-0.6,13.9c-2.8,0.5-5.1,0.9-7,1.1c-1.8,0.2-4.1,0.4-6.7,0.6c-2.6,0.2-4.9,0.3-6.9,0.3c-3.3,0-6.6-0.3-9.8-0.8 c-3.2-0.5-6.1-1.4-8.6-2.6c-2.5-1.2-4.6-2.8-6.3-4.9s-3-4.5-3.9-7.3c-0.9-2.8-1.4-5.7-1.4-8.7c0-5,1.2-9.6,3.7-13.8 c2.5-4.3,6-7.6,10.7-10.1s10.6-3.7,18-3.7c5.4,0,11.3,0.6,17.8,1.9c0,3.6,0.2,7.6,0.5,11.9c-1.8-0.6-3.2-1-4.3-1.3 c-1.1-0.3-2.4-0.6-3.8-0.8c-1.5-0.3-2.8-0.4-4.2-0.6c-1.3-0.1-2.5-0.2-3.5-0.2c-2.7,0-5.2,0.4-7.6,1.2c-2.4,0.8-4.5,2-6.2,3.6 c-1.7,1.6-3,3.5-3.9,5.7c-0.9,2.2-1.3,4.6-1.3,7.1c0,2.5,0.5,4.8,1.5,6.7c1,2,2.5,3.5,4.7,4.5c2.1,1,4.5,1.5,7.1,1.5 c2.2,0,4.6-0.3,7.2-1l0.4-8c-1.6-0.1-2.5-0.1-2.8-0.1l-3.9,0l0.3-4.5c0-0.5,0.1-1.2,0.1-2.1C40.3,53.3,40.3,52.1,40.3,50.5z"/>
        <path class="st0" d="M69.8,79.7l1.4-20.1L71.9,45l0.2-6.5c0-1.9,0.1-3.7,0.1-5.4l0-3.5c3.8,0,6.7,0.1,8.6,0.1 c1.5,0,4.1,0,7.8-0.1c-0.6,7-1,13.2-1.1,18.6h20c0.1-2,0.2-4.7,0.3-8.2c0.1-3.4,0.2-5.8,0.2-7c0-0.7,0-1.8-0.1-3.5l8.7,0.1 c0.9,0,3.5,0,7.7-0.1c-0.9,12.6-1.4,21.9-1.7,28.1c-0.2,6.1-0.4,13.5-0.4,22.1l-8-0.1c-1.2,0-4.1,0-8.6,0.1 c0.6-5.8,1-12.6,1.2-20.3h-20l-0.6,20.3l-8.5-0.1C76.6,79.6,74,79.7,69.8,79.7z"/>
        <path class="st0" d="M131.3,79.7c0.6-6.3,1.1-11.6,1.3-15.9c0.3-4.3,0.6-9.9,0.8-17c0.3-7.1,0.4-11.7,0.4-14l0-3.2 c5.8,0,12.8,0.1,21,0.1c7.6,0,14.2,0,20-0.1l-0.1,1.2c0,0.3-0.1,1.4-0.2,3.2l-0.2,4c0,0.9-0.1,1.7-0.1,2.6 c-4.7-0.2-8.7-0.3-11.9-0.3c-3.5,0-5.9,0-7.1,0c-1.2,0-3.2,0.1-5.8,0.2l-0.4,8.4c2.9,0.1,6.3,0.1,10.1,0.1c1.4,0,5-0.1,10.9-0.3 c-0.2,3.1-0.5,6.9-0.7,11.2c-4.2,0-7.5-0.1-9.8-0.1c-3.4,0-7.2,0.1-11.3,0.3l-0.4,8.9h4.2c1.2,0,3.8,0,7.7-0.1l7.6-0.2 c1.1,0,3-0.1,5.7-0.3c-0.3,3.6-0.5,7.4-0.7,11.2c-6,0-12.5-0.1-19.7-0.1l-16.2,0L131.3,79.7z"/>
        <path class="st0" d="M181.1,79.7l0.7-7.7l1.4-26.2l0.4-10.5v-5.7c3.8,0,7.2,0.1,10.1,0.1c2.1,0,5,0,8.8-0.1l15.7,28.5l2.2,4.2 c0.3-4.1,0.6-9.9,0.8-17.3c0.3-7.4,0.4-12.6,0.4-15.4c3,0,5.4,0.1,7.2,0.1c0.8,0,3.2,0,7.2-0.1l-0.9,10.9l-1.7,30.4l-0.2,8.8 c-3.2,0-6.2-0.1-8.9-0.1c-2.3,0-5.5,0-9.6,0.1c-1.3-2.4-2.2-4.1-2.8-5.2L205.9,64c-2-3.4-3.9-6.7-5.6-9.8 c-1.1-2-2.3-4.2-3.5-6.5L196,65l-0.4,14.7c-3,0-5.3-0.1-6.9-0.1C187.4,79.6,184.8,79.7,181.1,79.7z"/>
        <path class="st0" d="M254.2,79.7c1.2-11.9,1.9-25,2.2-39.3l-15.6,0.4l0.2-4.1c0.1-2.2,0.2-4.6,0.2-7.2c7,0,15.1,0.1,24.3,0.1 l9.1,0h8.8l4.8,0l-0.2,3.6c-0.1,1.9-0.2,3.5-0.2,4.8c0,1.3-0.1,2.2-0.1,2.9c-5.2-0.3-9.6-0.4-13-0.4h-2.6 c-0.4,4.3-0.7,8.3-0.8,12c-0.3,5.3-0.5,10.4-0.6,15.3c-0.1,4.9-0.2,9-0.2,12c-4,0-6.6-0.1-7.8-0.1 C261.6,79.6,258.7,79.7,254.2,79.7z"/>
      </g>
      <g>
        <path d="M132.1,96.5l-2.8-8.1c-1.6,0-3.2,0-5.1,0c-1,0-2.7,0-5,0c-0.6,1.2-1,2.1-1.3,2.7l-1.1,2.1l-10,18.9l-1.6,2.8 c2.2,0,3.8,0,4.8,0c0.5,0,2,0,4.4,0c1.2-2.7,2.4-5.2,3.5-7.5h9.8c1.1,2.9,1.9,5.4,2.5,7.5c2.1,0,3.7,0,4.8,0c0.5,0,1.8,0,4.1,0 l-1.1-2.8L132.1,96.5z M120.2,101.7l1.4-2.9c0.6-1.2,1.3-2.8,2.2-4.7c0.1,0.5,1,3,2.5,7.5H120.2z" style="fill: rgb(255, 255, 255);"/>
        <path d="M155.9,95.1l-0.2,4.1c-0.1,1.9-0.2,3.2-0.2,4c-0.1,1-0.2,1.9-0.3,2.6c-0.1,0.5-0.3,1-0.5,1.4c-0.2,0.3-0.4,0.6-0.6,0.9 c-0.2,0.2-0.4,0.4-0.7,0.6c-0.3,0.2-0.6,0.3-0.9,0.4c-0.3,0.1-0.6,0.1-0.9,0.1c-0.8,0-1.4-0.2-2-0.7c-0.6-0.5-0.8-1.4-0.8-2.8 c0-0.1,0-0.4,0-0.8c0-0.4,0.1-1.2,0.1-2.3l0.6-7.4c-1.4,0-2.6,0-3.8,0c-1.1,0-2.5,0-4.1,0c0,1.1,0,2.2-0.1,3.4 c-0.1,2-0.2,3.8-0.3,5.4l-0.3,4.4c0,0.5-0.1,0.9-0.1,1.1c0,1,0.1,1.8,0.4,2.5c0.3,0.7,0.7,1.4,1.4,1.9c0.7,0.6,1.5,1,2.4,1.2 c0.9,0.2,1.9,0.4,2.9,0.4c0.6,0,1.3,0,1.9-0.1c0.6-0.1,1.2-0.2,1.6-0.4c0.5-0.2,0.9-0.4,1.3-0.6c0.4-0.2,0.7-0.5,1.1-0.8 c0.3-0.3,0.7-0.7,1.2-1.3l0,2.7c1.2,0,2.5,0,3.7,0c1,0,2.2,0,3.7,0c0.1-4,0.2-7.5,0.4-10.4c0.2-3,0.4-6.1,0.7-9.4 c-1.2,0-2.4,0-3.6,0C159,95.1,157.6,95.1,155.9,95.1z" style="fill: rgb(255, 255, 255);"/>
        <path d="M177,100.7h4.5c0-0.9,0.1-2.6,0.2-5.3h-4.4c0-2,0.1-3.8,0.2-5.5c-2,0.5-3.3,0.8-3.9,0.9l-3.3,0.7 c-0.1,2-0.2,3.3-0.3,3.9h-3.2l-0.1,1.8c-0.1,1.5-0.1,2.6-0.2,3.5h3l-0.4,6.7c-0.1,1.1-0.1,1.9-0.1,2.2c0,0.3,0,0.6,0,0.7 c0,0.7,0.1,1.4,0.3,2.1c0.2,0.6,0.6,1.2,1.2,1.7c0.6,0.5,1.3,0.8,2.1,1c0.9,0.2,1.8,0.3,2.9,0.3c0.7,0,1.4,0,2.1-0.1 c0.7-0.1,1.7-0.3,3-0.5l0.4-2.4c0.2-1,0.4-2.1,0.6-3.2c-0.9,0.2-1.4,0.4-1.8,0.4c-0.3,0-0.7,0.1-1,0.1c-0.4,0-0.8-0.1-1.1-0.3 c-0.3-0.2-0.6-0.5-0.7-0.9c-0.1-0.4-0.2-0.9-0.2-1.6c0-0.2,0-0.7,0-1.4L177,100.7z" style="fill: rgb(255, 255, 255);"/>
        <path d="M204,97.4c-1-0.9-2.3-1.6-3.8-2.1c-1.5-0.5-3-0.7-4.6-0.7c-1.7,0-3.4,0.3-5,0.8c-1.6,0.6-2.9,1.3-4,2.4 c-1.1,1-1.9,2.2-2.4,3.5c-0.5,1.3-0.7,2.6-0.7,4s0.3,2.8,0.8,4c0.5,1.3,1.3,2.4,2.3,3.3c1,0.9,2.3,1.6,3.8,2.1 c1.5,0.5,3.1,0.7,4.7,0.7c1.8,0,3.5-0.3,5.1-0.8c1.6-0.5,2.9-1.4,3.9-2.5c1-1.1,1.8-2.3,2.2-3.5c0.4-1.2,0.6-2.6,0.6-3.9 c0-1.4-0.2-2.8-0.7-4C205.8,99.4,205,98.4,204,97.4z M198.7,107.3c-0.3,0.8-0.8,1.5-1.5,1.9c-0.6,0.4-1.4,0.6-2.2,0.6 c-1.1,0-2-0.4-2.7-1.1c-0.7-0.8-1.1-1.8-1.1-3.3c0-1,0.2-1.9,0.5-2.7c0.3-0.8,0.8-1.4,1.5-1.9s1.4-0.6,2.2-0.6 c0.8,0,1.5,0.2,2.1,0.6c0.6,0.4,1,0.9,1.3,1.6c0.3,0.6,0.4,1.4,0.4,2.2C199.2,105.6,199.1,106.5,198.7,107.3z" style="fill: rgb(255, 255, 255);"/>
        <path d="M240.1,95.1c-1-0.3-2.1-0.5-3.2-0.5c-0.9,0-1.7,0.1-2.5,0.3c-0.8,0.2-1.5,0.5-2.2,0.9c-0.6,0.4-1.2,1.1-1.8,1.9 c-0.3-0.5-0.6-0.9-0.8-1.2c-0.2-0.3-0.5-0.5-0.8-0.7c-0.3-0.2-0.6-0.4-1-0.6c-0.4-0.2-0.9-0.3-1.4-0.4c-0.6-0.1-1.2-0.2-1.8-0.2 c-0.6,0-1.1,0-1.7,0.1c-0.5,0.1-1,0.2-1.4,0.4c-0.4,0.1-0.8,0.3-1.2,0.6c-0.4,0.3-0.7,0.5-1,0.8c-0.3,0.3-0.6,0.7-1,1.2l0.1-2.6 c-1.2,0-2.4,0-3.6,0c-1.1,0-2.3,0-3.8,0l0,3.1l-0.3,7.3l-0.5,9.3c1.6,0,2.9,0,4,0c1,0,2.2,0,3.8,0c0-1.8,0.1-3.8,0.2-5.8 c0.1-2,0.2-3.5,0.3-4.5c0.1-1,0.3-1.7,0.6-2.3c0.3-0.6,0.6-1,1-1.3c0.4-0.3,0.8-0.4,1.3-0.4c0.5,0,0.8,0.1,1.1,0.3 c0.3,0.2,0.5,0.5,0.6,0.9c0.2,0.4,0.2,1,0.2,1.7c0,0.9-0.1,2.7-0.2,5.4c-0.2,2.7-0.3,4.6-0.4,5.8c1.5,0,2.9,0,4,0 c1.1,0,2.4,0,3.7,0l0.2-5.2c0.1-1.7,0.1-3.1,0.2-4.2c0.1-1,0.2-1.8,0.4-2.3c0.2-0.7,0.4-1.2,0.8-1.6c0.2-0.3,0.5-0.6,0.8-0.7 c0.3-0.1,0.6-0.2,1-0.2c0.4,0,0.7,0.1,1,0.2c0.3,0.2,0.6,0.4,0.7,0.8c0.2,0.4,0.3,1,0.3,1.9c0,1-0.1,2.7-0.2,5.1 c-0.1,2.5-0.3,4.5-0.4,6.2c1.5,0,2.9,0,4.3,0c1.1,0,2.3,0,3.4,0c0-1.2,0.1-3.2,0.2-6.2c0.2-2.9,0.3-5,0.4-6.2 c0.1-1.2,0.1-2.1,0.1-2.7c0-1.3-0.3-2.3-1-3.1C241.9,95.9,241.1,95.4,240.1,95.1z" style="fill: rgb(255, 255, 255);"/>
        <path d="M263.5,95.1c-1.3-0.3-2.7-0.5-4.2-0.5c-2.7,0-5.9,0.4-9.6,1.2c-0.1,1-0.2,1.8-0.3,2.3c-0.1,0.5-0.2,1.4-0.5,2.6 c3.3-1.3,6-1.9,8.2-1.9c0.8,0,1.4,0.1,1.8,0.4c0.4,0.3,0.6,0.6,0.6,1.1c0,0.2,0,0.4-0.1,0.5c-0.1,0.2-0.2,0.3-0.3,0.5 c-0.1,0.1-0.3,0.3-0.6,0.4s-0.6,0.2-1.2,0.4c-0.6,0.1-1.2,0.3-1.9,0.4c-1.6,0.3-3,0.6-4,1c-1.1,0.3-1.9,0.7-2.5,1.1 c-0.6,0.4-1.1,0.9-1.6,1.4s-0.8,1.1-1,1.7c-0.2,0.6-0.3,1.2-0.3,1.8c0,1,0.3,2,0.9,3c0.6,1,1.4,1.7,2.5,2.2s2.4,0.7,4,0.7 c1,0,2-0.1,3.2-0.3c0.5-1.9,1-3.4,1.3-4.4c-0.5,0.2-1,0.3-1.3,0.3c-0.3,0-0.6,0.1-0.9,0.1c-0.8,0-1.3-0.2-1.7-0.5 c-0.3-0.3-0.5-0.7-0.5-1.1c0-0.3,0.1-0.5,0.2-0.8c0.1-0.2,0.3-0.5,0.6-0.7c0.3-0.2,0.6-0.4,1-0.5c0.4-0.1,0.9-0.3,1.6-0.5 c0.7-0.2,1.2-0.4,1.5-0.5c0.3-0.1,0.7-0.3,1.2-0.5c-0.2,4.4-0.4,7.4-0.6,8.8c1.4,0,2.7,0,3.9,0c1.3,0,2.5,0,3.8,0 c0.1-4.1,0.3-7.4,0.4-10c0.2-2.5,0.3-4.2,0.3-4.9c0-1.4-0.4-2.5-1.1-3.3C265.8,96,264.8,95.4,263.5,95.1z" style="fill: rgb(255, 255, 255);"/>
        <path d="M281.2,100.7h4.5c0-0.9,0.1-2.6,0.2-5.3h-4.4c0-2,0.1-3.8,0.2-5.5c-2,0.5-3.3,0.8-3.9,0.9l-3.3,0.7 c-0.1,2-0.2,3.3-0.3,3.9h-3.2l-0.1,1.8c-0.1,1.5-0.1,2.6-0.2,3.5h3l-0.4,6.7c-0.1,1.1-0.1,1.9-0.1,2.2c0,0.3,0,0.6,0,0.7 c0,0.7,0.1,1.4,0.3,2.1c0.2,0.6,0.6,1.2,1.2,1.7c0.6,0.5,1.3,0.8,2.1,1c0.9,0.2,1.8,0.3,2.9,0.3c0.7,0,1.4,0,2.1-0.1 c0.7-0.1,1.7-0.3,3-0.5l0.4-2.4c0.2-1,0.4-2.1,0.6-3.2c-0.9,0.2-1.4,0.4-1.8,0.4c-0.3,0-0.7,0.1-1,0.1c-0.4,0-0.8-0.1-1.1-0.3 c-0.3-0.2-0.6-0.5-0.7-0.9c-0.1-0.4-0.2-0.9-0.2-1.6c0-0.2,0-0.7,0-1.4L281.2,100.7z" style="fill: rgb(255, 255, 255);"/>
        <path d="M289.5,87.9c0,0.4,0,0.8,0,1c0,0.9,0,2.1-0.1,3.6c1.4,0,2.7,0,4,0c1.2,0,2.4,0,3.7,0c0-0.5,0-0.9,0-1.3l0.1-2.4 c0-0.3,0-0.6,0.1-1c-1.1,0-2.4,0-3.8,0C292.4,87.9,291.1,87.9,289.5,87.9z" style="fill: rgb(255, 255, 255);"/>
        <path d="M289.3,95.1c0,2.5-0.1,4.8-0.2,6.7c-0.1,1.9-0.1,3.7-0.2,5.3c-0.1,1.6-0.2,2.9-0.3,3.9c-0.1,1-0.2,2.3-0.4,3.9 c1.8,0,3.2,0,4.3,0c1.1,0,2.4,0,4,0c0-1.3,0-3.8,0.1-7.5c0-2.1,0.1-4,0.2-5.9c0.1-1.8,0.3-4,0.5-6.4c-1.7,0-3,0-4,0 C292.3,95.1,290.9,95.1,289.3,95.1z" style="fill: rgb(255, 255, 255);"/>
        <path d="M320.8,97.4c-1-0.9-2.3-1.6-3.8-2.1c-1.5-0.5-3-0.7-4.6-0.7c-1.7,0-3.4,0.3-5,0.8c-1.6,0.6-2.9,1.3-4,2.4 c-1.1,1-1.9,2.2-2.4,3.5c-0.5,1.3-0.7,2.6-0.7,4s0.3,2.8,0.8,4c0.5,1.3,1.3,2.4,2.3,3.3c1,0.9,2.3,1.6,3.8,2.1 c1.5,0.5,3.1,0.7,4.7,0.7c1.8,0,3.5-0.3,5.1-0.8c1.6-0.5,2.9-1.4,3.9-2.5c1-1.1,1.8-2.3,2.2-3.5c0.4-1.2,0.6-2.6,0.6-3.9 c0-1.4-0.2-2.8-0.7-4C322.5,99.4,321.8,98.4,320.8,97.4z M315.5,107.3c-0.3,0.8-0.8,1.5-1.5,1.9c-0.6,0.4-1.4,0.6-2.2,0.6 c-1.1,0-2-0.4-2.7-1.1c-0.7-0.8-1.1-1.8-1.1-3.3c0-1,0.2-1.9,0.5-2.7c0.3-0.8,0.8-1.4,1.5-1.9s1.4-0.6,2.2-0.6 c0.8,0,1.5,0.2,2.1,0.6c0.6,0.4,1,0.9,1.3,1.6c0.3,0.6,0.4,1.4,0.4,2.2C316,105.6,315.8,106.5,315.5,107.3z" style="fill: rgb(255, 255, 255);"/>
        <path d="M349.9,98.9c-0.1-0.6-0.4-1.2-0.8-1.8c-0.4-0.5-0.9-1-1.5-1.4c-0.6-0.4-1.3-0.7-2.2-0.9c-0.9-0.2-1.8-0.3-2.7-0.3 c-0.7,0-1.3,0-1.9,0.1c-0.6,0.1-1.2,0.2-1.7,0.4c-0.5,0.2-1,0.4-1.5,0.6c-0.5,0.3-0.8,0.5-1.2,0.8s-0.7,0.7-1.1,1.1l0.2-2.6 c-1.2,0-2.5,0-3.8,0c-1.1,0-2.5,0-4,0c0,3.2-0.2,6.5-0.4,10.1c-0.2,3.5-0.5,6.8-0.9,9.7c1.5,0,2.9,0,4.2,0c1.2,0,2.5,0,3.8,0 c0.1-2.2,0.2-4.4,0.3-6.6c0.1-2.1,0.4-3.7,0.8-4.6c0.4-0.9,0.9-1.7,1.5-2.1c0.7-0.5,1.4-0.7,2.1-0.7c0.9,0,1.6,0.3,2.1,0.9 c0.6,0.6,0.8,1.6,0.8,3.1c0,0.9-0.1,2.6-0.2,4.9c-0.1,2.3-0.3,4.1-0.4,5.2c1.3,0,2.7,0,4.2,0c1.1,0,2.4,0,3.7,0 c0-1.2,0-2.5,0.1-3.8l0.3-7c0.1-1.6,0.2-2.7,0.2-3.2C350.1,100.2,350.1,99.5,349.9,98.9z" style="fill: rgb(255, 255, 255);"/>
      </g>
    </g>
  </g>
</svg>