<svg xmlns="http://www.w3.org/2000/svg" xmlns:xlink="http://www.w3.org/1999/xlink" zoomAndPan="magnify" preserveAspectRatio="xMidYMid meet" version="1.0" viewBox="2.56 108.24 594.87 83.13"><rect id="backgroundrect" width="100%" height="100%" x="0" y="0" fill="none" stroke="none"/><defs><g id="svg_1"/></defs><g class="currentLayer" style=""><title>Layer 1</title><g fill="#ffffff" fill-opacity="1" id="svg_2" class="" stroke="none"><g id="svg_3" stroke="none" stroke-opacity="1" fill="#ffffff" fill-opacity="1"><g id="svg_4" stroke="none" stroke-opacity="1" fill="#ffffff" fill-opacity="1"><path d="M40.886731028556824,119.94387817382812 L40.886731028556824,108.24075317382812 L2.5586060285568237,108.24075317382812 L2.5586060285568237,119.94387817382812 L15.417981028556824,119.94387817382812 L15.417981028556824,159.27200317382812 L28.199231028556824,159.27200317382812 L28.199231028556824,119.94387817382812 zM40.886731028556824,119.94387817382812 " id="svg_5" stroke="none" stroke-opacity="1" fill="#ffffff" fill-opacity="1"/></g></g></g><g fill="#ffffff" fill-opacity="1" id="svg_6" class=""><g id="svg_7" fill="#ffffff" fill-opacity="1"><g id="svg_8" fill="#ffffff" fill-opacity="1"><path d="M82.34570693969727,159.27200317382812 L82.34570693969727,108.24075317382812 L69.58008193969727,108.24075317382812 L69.58008193969727,127.99075317382812 L56.798831939697266,127.99075317382812 L56.798831939697266,108.24075317382812 L44.017581939697266,108.24075317382812 L44.017581939697266,159.27200317382812 L56.798831939697266,159.27200317382812 L56.798831939697266,139.22512817382812 L69.58008193969727,139.22512817382812 L69.58008193969727,159.27200317382812 zM82.34570693969727,159.27200317382812 " id="svg_9" fill="#ffffff" fill-opacity="1"/></g></g></g><g fill="#ffffff" fill-opacity="1" id="svg_10" class=""><g id="svg_11" fill="#ffffff" fill-opacity="1"><g id="svg_12" fill="#ffffff" fill-opacity="1"><path d="M124.4874267578125,159.27200317382812 L124.4874267578125,147.64700317382812 L99.0968017578125,147.64700317382812 L99.0968017578125,139.22512817382812 L124.4874267578125,139.22512817382812 L124.4874267578125,127.99075317382812 L99.0968017578125,127.99075317382812 L99.0968017578125,119.94387817382812 L124.4874267578125,119.94387817382812 L124.4874267578125,108.24075317382812 L86.3155517578125,108.24075317382812 L86.3155517578125,159.27200317382812 zM124.4874267578125,159.27200317382812 " id="svg_13" fill="#ffffff" fill-opacity="1"/></g></g></g><g fill="#000000" fill-opacity="1" id="svg_14"><g id="svg_15"><g id="svg_16"/></g></g><g fill="#f29621" fill-opacity="1" id="svg_17"><g id="svg_18"><g id="svg_19"><path d="M193.5703125,159.27200317382812 L193.5703125,108.24075317382812 L180.8046875,108.24075317382812 L180.8046875,127.99075317382812 L168.0234375,127.99075317382812 L168.0234375,108.24075317382812 L155.2421875,108.24075317382812 L155.2421875,159.27200317382812 L168.0234375,159.27200317382812 L168.0234375,139.22512817382812 L180.8046875,139.22512817382812 L180.8046875,159.27200317382812 zM193.5703125,159.27200317382812 " id="svg_20"/></g></g></g><g fill="#f29621" fill-opacity="1" id="svg_21"><g id="svg_22"><g id="svg_23"><path d="M235.71202087402344,159.27200317382812 L235.71202087402344,147.64700317382812 L210.32139587402344,147.64700317382812 L210.32139587402344,139.22512817382812 L235.71202087402344,139.22512817382812 L235.71202087402344,127.99075317382812 L210.32139587402344,127.99075317382812 L210.32139587402344,119.94387817382812 L235.71202087402344,119.94387817382812 L235.71202087402344,108.24075317382812 L197.54014587402344,108.24075317382812 L197.54014587402344,159.27200317382812 zM235.71202087402344,159.27200317382812 " id="svg_24"/></g></g></g><g fill="#f29621" fill-opacity="1" id="svg_25"><g id="svg_26"><g id="svg_27"><path d="M278.0132751464844,159.27200317382812 L278.0132751464844,108.24075317382812 L239.68515014648438,108.24075317382812 L239.68515014648438,159.27200317382812 L252.46640014648438,159.27200317382812 L252.46640014648438,145.03762817382812 L265.2476501464844,145.03762817382812 L265.2476501464844,159.27200317382812 zM265.2476501464844,133.41262817382812 L252.46640014648438,133.41262817382812 L252.46640014648438,119.94387817382812 L265.2476501464844,119.94387817382812 zM265.2476501464844,133.41262817382812 " id="svg_28"/></g></g></g><g fill="#f29621" fill-opacity="1" id="svg_29"><g id="svg_30"><g id="svg_31"><path d="M320.1549987792969,159.27200317382812 L320.1549987792969,147.64700317382812 L294.7643737792969,147.64700317382812 L294.7643737792969,108.24075317382812 L281.9831237792969,108.24075317382812 L281.9831237792969,159.27200317382812 zM320.1549987792969,159.27200317382812 " id="svg_32"/></g></g></g><g fill="#f29621" fill-opacity="1" id="svg_33"><g id="svg_34"><g id="svg_35"><path d="M361.153564453125,119.94387817382812 L361.153564453125,108.24075317382812 L322.825439453125,108.24075317382812 L322.825439453125,119.94387817382812 L335.684814453125,119.94387817382812 L335.684814453125,159.27200317382812 L348.466064453125,159.27200317382812 L348.466064453125,119.94387817382812 zM361.153564453125,119.94387817382812 " id="svg_36"/></g></g></g><g fill="#f29621" fill-opacity="1" id="svg_37"><g id="svg_38"><g id="svg_39"><path d="M402.6125183105469,159.27200317382812 L402.6125183105469,108.24075317382812 L389.8468933105469,108.24075317382812 L389.8468933105469,127.99075317382812 L377.0656433105469,127.99075317382812 L377.0656433105469,108.24075317382812 L364.2843933105469,108.24075317382812 L364.2843933105469,159.27200317382812 L377.0656433105469,159.27200317382812 L377.0656433105469,139.22512817382812 L389.8468933105469,139.22512817382812 L389.8468933105469,159.27200317382812 zM402.6125183105469,159.27200317382812 " id="svg_40"/></g></g></g><g fill="#000000" fill-opacity="1" id="svg_41"><g id="svg_42"><g id="svg_43"/></g></g><g fill="#ffffff" fill-opacity="1" id="svg_44" class=""><g id="svg_45" fill="#ffffff" fill-opacity="1"><g id="svg_46" fill="#ffffff" fill-opacity="1"><path d="M471.6849060058594,159.27200317382812 L471.6849060058594,127.99075317382812 L446.1380310058594,127.99075317382812 L446.1380310058594,119.94387817382812 L471.6849060058594,119.94387817382812 L471.6849060058594,108.24075317382812 L433.3567810058594,108.24075317382812 L433.3567810058594,139.22512817382812 L458.9192810058594,139.22512817382812 L458.9192810058594,147.64700317382812 L433.3567810058594,147.64700317382812 L433.3567810058594,159.27200317382812 zM471.6849060058594,159.27200317382812 " id="svg_47" fill="#ffffff" fill-opacity="1"/></g></g></g><g fill="#ffffff" fill-opacity="1" id="svg_48" class=""><g id="svg_49" fill="#ffffff" fill-opacity="1"><g id="svg_50" fill="#ffffff" fill-opacity="1"><path d="M513.9064025878906,145.03762817382812 L513.9064025878906,108.24075317382812 L475.5782775878906,108.24075317382812 L475.5782775878906,159.27200317382812 L488.3595275878906,159.27200317382812 L488.3595275878906,145.03762817382812 zM501.1407775878906,133.41262817382812 L488.3595275878906,133.41262817382812 L488.3595275878906,119.94387817382812 L501.1407775878906,119.94387817382812 zM501.1407775878906,133.41262817382812 " id="svg_51" fill="#ffffff" fill-opacity="1"/></g></g></g><g fill="#ffffff" fill-opacity="1" id="svg_52" class=""><g id="svg_53" fill="#ffffff" fill-opacity="1"><g id="svg_54" fill="#ffffff" fill-opacity="1"><path d="M555.9749145507812,159.27200317382812 L555.9749145507812,108.24075317382812 L517.6467895507812,108.24075317382812 L517.6467895507812,159.27200317382812 zM543.2092895507812,147.64700317382812 L530.4280395507812,147.64700317382812 L530.4280395507812,119.94387817382812 L543.2092895507812,119.94387817382812 zM543.2092895507812,147.64700317382812 " id="svg_55" fill="#ffffff" fill-opacity="1"/></g></g></g><g fill="#ffffff" fill-opacity="1" id="svg_56" class=""><g id="svg_57" fill="#ffffff" fill-opacity="1"><g id="svg_58" fill="#ffffff" fill-opacity="1"><path d="M597.4291381835938,119.94387817382812 L597.4291381835938,108.24075317382812 L559.1010131835938,108.24075317382812 L559.1010131835938,119.94387817382812 L571.9603881835938,119.94387817382812 L571.9603881835938,159.27200317382812 L584.7416381835938,159.27200317382812 L584.7416381835938,119.94387817382812 zM597.4291381835938,119.94387817382812 " id="svg_59" fill="#ffffff" fill-opacity="1"/></g></g></g><g fill="#ffffff" fill-opacity="1" id="svg_60" class=""><g id="svg_61" fill="#ffffff" fill-opacity="1"><g id="svg_62" fill="#ffffff" fill-opacity="1"><path d="M252.6123046875,186.3565216064453 C251.0380856875,186.3565216064453 249.8623046875,185.7705846064453 249.0810546875,184.5908966064453 L248.8466796875,184.6221466064453 L248.8466796875,186.1221466064453 L245.7373046875,186.1221466064453 L245.7373046875,168.7627716064453 L248.8466796875,168.7627716064453 L248.8466796875,175.2002716064453 L249.0810546875,175.2471466064453 C249.5068356875,174.6533966064453 250.0107426875,174.2158966064453 250.5966796875,173.9346466064453 C251.1787106875,173.6455846064453 251.8701166875,173.4971466064453 252.6748046875,173.4971466064453 C253.6826166875,173.4971466064453 254.5654296875,173.7393346064453 255.3154296875,174.2158966064453 C256.0654296875,174.6846466064453 256.64746068750003,175.3994906064453 257.0654296875,176.3565216064453 C257.4794926875,177.3174586064453 257.6904296875,178.5088656064453 257.6904296875,179.9346466064453 C257.6904296875,181.3408966064453 257.4716796875,182.5283966064453 257.0341796875,183.4971466064453 C256.6044926875,184.4580846064453 256.00683568750003,185.1768346064453 255.2373046875,185.6533966064453 C254.4755856875,186.1221466064453 253.6005856875,186.3565216064453 252.6123046875,186.3565216064453 zM251.6748046875,183.7158966064453 C252.5810546875,183.7158966064453 253.2724606875,183.4151156064453 253.7529296875,182.8096466064453 C254.2294926875,182.1963656064453 254.4716796875,181.2393346064453 254.4716796875,179.9346466064453 C254.4716796875,178.6221466064453 254.2294926875,177.6651156064453 253.7529296875,177.0596466064453 C253.2724606875,176.4463656064453 252.5810546875,176.1377716064453 251.6748046875,176.1377716064453 C250.7998046875,176.1377716064453 250.1005856875,176.4580846064453 249.5810546875,177.0908966064453 C249.0693356875,177.7158966064453 248.8154296875,178.6651156064453 248.8154296875,179.9346466064453 C248.8154296875,181.2080846064453 249.0693356875,182.1533966064453 249.5810546875,182.7783966064453 C250.1005856875,183.4033966064453 250.7998046875,183.7158966064453 251.6748046875,183.7158966064453 zM251.6748046875,183.7158966064453 " id="svg_63" fill="#ffffff" fill-opacity="1"/></g></g></g><g fill="#ffffff" fill-opacity="1" id="svg_64" class=""><g id="svg_65" fill="#ffffff" fill-opacity="1"><g id="svg_66" fill="#ffffff" fill-opacity="1"><path d="M261.5208435058594,191.3721466064453 C260.9895935058594,191.3721466064453 260.50912450585935,191.3291776064453 260.0833435058594,191.2471466064453 C259.6536565058594,191.1729276064453 259.30599950585935,191.0674586064453 259.0364685058594,190.9346466064453 L259.5208435058594,188.4190216064453 L259.7239685058594,188.3408966064453 C259.9114685058594,188.4424586064453 260.1458435058594,188.5205846064453 260.4270935058594,188.5752716064453 C260.7083435058594,188.6377716064453 260.99349950585935,188.6690216064453 261.2864685058594,188.6690216064453 C261.7864685058594,188.6690216064453 262.2005305058594,188.5987086064453 262.5364685058594,188.4658966064453 C262.86849950585935,188.3408966064453 263.14974950585935,188.1260526064453 263.3802185058594,187.8252716064453 C263.6067805058594,187.5205846064453 263.8177185058594,187.0987086064453 264.0052185058594,186.5596466064453 L259.0520935058594,173.7315216064453 L262.3177185058594,173.7315216064453 L265.3958435058594,182.3408966064453 L265.6614685058594,182.3408966064453 L268.6614685058594,173.7315216064453 L271.8177185058594,173.7315216064453 L266.8489685058594,186.9033966064453 C266.4505305058594,187.9658966064453 266.0130305058594,188.8174586064453 265.5364685058594,189.4658966064453 C265.0677185058594,190.1104276064453 264.5052185058594,190.5908966064453 263.8489685058594,190.9033966064453 C263.2005305058594,191.2158966064453 262.4270935058594,191.3721466064453 261.5208435058594,191.3721466064453 zM261.5208435058594,191.3721466064453 " id="svg_67" fill="#ffffff" fill-opacity="1"/></g></g></g><g fill="#000000" fill-opacity="1" id="svg_68"><g id="svg_69"><g id="svg_70"/></g></g><g fill="#ffffff" fill-opacity="1" id="svg_71" class=""><g id="svg_72" fill="#ffffff" fill-opacity="1"><g id="svg_73" fill="#ffffff" fill-opacity="1"><path d="M293.25128173828125,186.1221466064453 L289.84503173828125,186.1221466064453 L288.61065673828125,182.3408966064453 L282.31378173828125,182.3408966064453 L281.07940673828125,186.1221466064453 L277.75128173828125,186.1221466064453 L283.42315673828125,169.7002716064453 L287.57940673828125,169.7002716064453 zM285.31378173828125,173.1221466064453 L283.18878173828125,179.6065216064453 L287.70440673828125,179.6065216064453 L285.59503173828125,173.1221466064453 zM285.31378173828125,173.1221466064453 " id="svg_74" fill="#ffffff" fill-opacity="1"/></g></g></g><g fill="#ffffff" fill-opacity="1" id="svg_75" class=""><g id="svg_76" fill="#ffffff" fill-opacity="1"><g id="svg_77" fill="#ffffff" fill-opacity="1"><path d="M302.155517578125,186.3565216064453 C300.581298578125,186.3565216064453 299.405517578125,185.7705846064453 298.624267578125,184.5908966064453 L298.389892578125,184.6221466064453 L298.389892578125,186.1221466064453 L295.280517578125,186.1221466064453 L295.280517578125,168.7627716064453 L298.389892578125,168.7627716064453 L298.389892578125,175.2002716064453 L298.624267578125,175.2471466064453 C299.050048578125,174.6533966064453 299.553955578125,174.2158966064453 300.139892578125,173.9346466064453 C300.721923578125,173.6455846064453 301.413329578125,173.4971466064453 302.218017578125,173.4971466064453 C303.225829578125,173.4971466064453 304.108642578125,173.7393346064453 304.858642578125,174.2158966064453 C305.608642578125,174.6846466064453 306.19067357812503,175.3994906064453 306.608642578125,176.3565216064453 C307.022705578125,177.3174586064453 307.233642578125,178.5088656064453 307.233642578125,179.9346466064453 C307.233642578125,181.3408966064453 307.014892578125,182.5283966064453 306.577392578125,183.4971466064453 C306.147705578125,184.4580846064453 305.55004857812503,185.1768346064453 304.780517578125,185.6533966064453 C304.01879857812503,186.1221466064453 303.14379857812503,186.3565216064453 302.155517578125,186.3565216064453 zM301.218017578125,183.7158966064453 C302.124267578125,183.7158966064453 302.81567357812503,183.4151156064453 303.296142578125,182.8096466064453 C303.772705578125,182.1963656064453 304.014892578125,181.2393346064453 304.014892578125,179.9346466064453 C304.014892578125,178.6221466064453 303.772705578125,177.6651156064453 303.296142578125,177.0596466064453 C302.81567357812503,176.4463656064453 302.124267578125,176.1377716064453 301.218017578125,176.1377716064453 C300.343017578125,176.1377716064453 299.643798578125,176.4580846064453 299.124267578125,177.0908966064453 C298.612548578125,177.7158966064453 298.358642578125,178.6651156064453 298.358642578125,179.9346466064453 C298.358642578125,181.2080846064453 298.612548578125,182.1533966064453 299.124267578125,182.7783966064453 C299.643798578125,183.4033966064453 300.343017578125,183.7158966064453 301.218017578125,183.7158966064453 zM301.218017578125,183.7158966064453 " id="svg_78" fill="#ffffff" fill-opacity="1"/></g></g></g><g fill="#ffffff" fill-opacity="1" id="svg_79" class=""><g id="svg_80" fill="#ffffff" fill-opacity="1"><g id="svg_81" fill="#ffffff" fill-opacity="1"><path d="M314.1265563964844,186.3565216064453 C313.2828063964844,186.3565216064453 312.50546239648435,186.2549586064453 311.7984313964844,186.0596466064453 C311.09921239648435,185.8643346064453 310.5015563964844,185.5908966064453 310.0015563964844,185.2471466064453 C309.5015563964844,184.8955846064453 309.13046239648435,184.4932406064453 308.8921813964844,184.0440216064453 L310.6265563964844,182.1846466064453 L310.8609313964844,182.1846466064453 C311.2671813964844,182.7393346064453 311.7515563964844,183.1533966064453 312.3140563964844,183.4346466064453 C312.8765563964844,183.7080846064453 313.4859313964844,183.8408966064453 314.1421813964844,183.8408966064453 C314.75546239648435,183.8408966064453 315.2124933964844,183.7315216064453 315.5171813964844,183.5127716064453 C315.81796239648435,183.2940216064453 315.9703063964844,182.9893346064453 315.9703063964844,182.5908966064453 C315.9703063964844,182.2705846064453 315.8609313964844,182.0049586064453 315.6421813964844,181.7940216064453 C315.4234313964844,181.5752716064453 315.06796239648435,181.4112086064453 314.5796813964844,181.2940216064453 L312.9390563964844,180.9033966064453 C311.70858739648435,180.6143346064453 310.8062433964844,180.1651156064453 310.2359313964844,179.5596466064453 C309.6734313964844,178.9580846064453 309.3921813964844,178.1924586064453 309.3921813964844,177.2627716064453 C309.3921813964844,176.4932406064453 309.5874933964844,175.8252716064453 309.9859313964844,175.2627716064453 C310.38046239648435,174.6924586064453 310.9312433964844,174.2549586064453 311.6421813964844,173.9502716064453 C312.3609313964844,173.6494906064453 313.19296239648435,173.4971466064453 314.1421813964844,173.4971466064453 C315.25546239648435,173.4971466064453 316.17733739648435,173.6612086064453 316.9078063964844,173.9815216064453 C317.6460873964844,174.3057406064453 318.2242123964844,174.7393346064453 318.6421813964844,175.2783966064453 L316.9703063964844,177.0752716064453 L316.7515563964844,177.0752716064453 C316.4078063964844,176.6807406064453 316.0171813964844,176.3955846064453 315.5796813964844,176.2158966064453 C315.1499933964844,176.0401156064453 314.6734313964844,175.9502716064453 314.1421813964844,175.9502716064453 C312.91171239648435,175.9502716064453 312.2984313964844,176.3330846064453 312.2984313964844,177.0908966064453 C312.2984313964844,177.4151156064453 312.41171239648435,177.6807406064453 312.6421813964844,177.8877716064453 C312.8687433964844,178.0869906064453 313.2749933964844,178.2471466064453 313.8609313964844,178.3721466064453 L315.3765563964844,178.7158966064453 C316.6343693964844,178.9776156064453 317.5562433964844,179.4112086064453 318.1421813964844,180.0127716064453 C318.7242123964844,180.6065216064453 319.0171813964844,181.4033966064453 319.0171813964844,182.4033966064453 C319.0171813964844,183.1963656064453 318.8179623964844,183.8955846064453 318.4234313964844,184.4971466064453 C318.0367123964844,185.0908966064453 317.4742123964844,185.5518346064453 316.7359313964844,185.8721466064453 C316.0054623964844,186.1924591064453 315.1343693964844,186.3565216064453 314.1265563964844,186.3565216064453 zM314.1265563964844,186.3565216064453 " id="svg_82" fill="#ffffff" fill-opacity="1"/></g></g></g><g fill="#ffffff" fill-opacity="1" id="svg_83" class=""><g id="svg_84" fill="#ffffff" fill-opacity="1"><g id="svg_85" fill="#ffffff" fill-opacity="1"><path d="M326.9503173828125,186.3565216064453 C325.7315673828125,186.3565216064453 324.6612543828125,186.1065216064453 323.7471923828125,185.6065216064453 C322.8292233828125,185.1065216064453 322.1143803828125,184.3799586064453 321.6065673828125,183.4190216064453 C321.1065673828125,182.4619906064453 320.8565673828125,181.3018346064453 320.8565673828125,179.9346466064453 C320.8565673828125,178.5713656064453 321.1065673828125,177.4112086064453 321.6065673828125,176.4502716064453 C322.1143803828125,175.4815216064453 322.8292233828125,174.7471466064453 323.7471923828125,174.2471466064453 C324.6612543828125,173.7471466064453 325.7315673828125,173.4971466064453 326.9503173828125,173.4971466064453 C328.15734838281253,173.4971466064453 329.21984838281253,173.7471466064453 330.1378173828125,174.2471466064453 C331.0518803828125,174.7471466064453 331.76672338281253,175.4815216064453 332.2784423828125,176.4502716064453 C332.7862543828125,177.4112086064453 333.0440673828125,178.5713656064453 333.0440673828125,179.9346466064453 C333.0440673828125,181.3018346064453 332.7862543828125,182.4619906064453 332.2784423828125,183.4190216064453 C331.76672338281253,184.3799586064453 331.0518803828125,185.1065216064453 330.1378173828125,185.6065216064453 C329.21984838281253,186.1065216064453 328.15734838281253,186.3565216064453 326.9503173828125,186.3565216064453 zM326.9503173828125,183.7158966064453 C328.8643803828125,183.7158966064453 329.8253173828125,182.4580846064453 329.8253173828125,179.9346466064453 C329.8253173828125,178.6221466064453 329.57922338281253,177.6651156064453 329.0909423828125,177.0596466064453 C328.5987543828125,176.4463656064453 327.8878173828125,176.1377716064453 326.9503173828125,176.1377716064453 C325.0206303828125,176.1377716064453 324.0596923828125,177.4033966064453 324.0596923828125,179.9346466064453 C324.0596923828125,182.4580846064453 325.0206303828125,183.7158966064453 326.9503173828125,183.7158966064453 zM326.9503173828125,183.7158966064453 " id="svg_86" fill="#ffffff" fill-opacity="1"/></g></g></g><g fill="#ffffff" fill-opacity="1" id="svg_87" class=""><g id="svg_88" fill="#ffffff" fill-opacity="1"><g id="svg_89" fill="#ffffff" fill-opacity="1"><path d="M339.2803649902344,186.3565216064453 C338.1631779902344,186.3565216064453 337.3116149902344,186.05574040644532 336.7178649902344,185.4502716064453 C336.1319279902344,184.8487086064453 335.8428649902344,183.9307406064453 335.8428649902344,182.7002716064453 L335.8428649902344,168.7627716064453 L338.9522399902344,168.7627716064453 L338.9522399902344,182.5908966064453 C338.9522399902344,183.3408966064453 339.26864599023435,183.7158966064453 339.9053649902344,183.7158966064453 C340.08114599023435,183.7158966064453 340.26864599023435,183.6846466064453 340.4678649902344,183.6221466064453 L340.6241149902344,183.6690216064453 L340.9053649902344,186.0596466064453 C340.73739599023435,186.1533966064453 340.5069279902344,186.2237086064453 340.2178649902344,186.2783966064453 C339.9366149902344,186.3291776064453 339.6241149902344,186.3565216064453 339.2803649902344,186.3565216064453 zM339.2803649902344,186.3565216064453 " id="svg_90" fill="#ffffff" fill-opacity="1"/></g></g></g><g fill="#ffffff" fill-opacity="1" id="svg_91" class=""><g id="svg_92" fill="#ffffff" fill-opacity="1"><g id="svg_93" fill="#ffffff" fill-opacity="1"><path d="M346.9293212890625,186.3565216064453 C345.5308842890625,186.3565216064453 344.4996342890625,185.9776156064453 343.8355712890625,185.2158966064453 C343.1793212890625,184.4580846064453 342.8511962890625,183.3682406064453 342.8511962890625,181.9502716064453 L342.8511962890625,173.7315216064453 L345.9605712890625,173.7315216064453 L345.9605712890625,181.5440216064453 C345.9605712890625,182.3057406064453 346.1207272890625,182.8643346064453 346.4449462890625,183.2158966064453 C346.7769772890625,183.5596466064453 347.2808842890625,183.7315216064453 347.9605712890625,183.7315216064453 C348.8238522890625,183.7315216064453 349.49572728906253,183.4502716064453 349.9761962890625,182.8877716064453 C350.4527582890625,182.3174586064453 350.6949462890625,181.4268346064453 350.6949462890625,180.2158966064453 L350.6949462890625,173.7315216064453 L353.8043212890625,173.7315216064453 L353.8043212890625,186.1221466064453 L350.8199462890625,186.1221466064453 L350.8199462890625,184.3096466064453 L350.5855712890625,184.2471466064453 C350.1793212890625,184.9580846064453 349.6871342890625,185.4893346064453 349.1168212890625,185.8408966064453 C348.5543212890625,186.1846466064453 347.8238522890625,186.3565216064453 346.9293212890625,186.3565216064453 zM346.9293212890625,186.3565216064453 " id="svg_94" fill="#ffffff" fill-opacity="1"/></g></g></g><g fill="#ffffff" fill-opacity="1" id="svg_95" class=""><g id="svg_96" fill="#ffffff" fill-opacity="1"><g id="svg_97" fill="#ffffff" fill-opacity="1"><path d="M364.1295471191406,183.1690216064453 L364.9420471191406,185.4658966064453 C364.5982971191406,185.7471466064453 364.1686101191406,185.9658966064453 363.6607971191406,186.1221466064453 C363.1607971191406,186.2783966064453 362.5865781191406,186.3565216064453 361.9420471191406,186.3565216064453 C360.5982971191406,186.3565216064453 359.5748601191406,185.9932406064453 358.8795471191406,185.2627716064453 C358.1803281191406,184.5362086064453 357.8326721191406,183.4737086064453 357.8326721191406,182.0752716064453 L357.8326721191406,176.2002716064453 L355.9576721191406,176.2002716064453 L355.9576721191406,173.7158966064453 L357.8326721191406,173.7158966064453 L357.8326721191406,171.3096466064453 L360.9576721191406,170.8096466064453 L360.9576721191406,173.7158966064453 L364.4732971191406,173.7158966064453 L364.4732971191406,176.2002716064453 L360.9576721191406,176.2002716064453 L360.9576721191406,181.8565216064453 C360.9576721191406,182.4737086064453 361.0826721191406,182.9190216064453 361.3326721191406,183.2002716064453 C361.5826721191406,183.4815216064453 361.9498601191406,183.6221466064453 362.4420471191406,183.6221466064453 C362.9928281191406,183.6221466064453 363.4772031191406,183.4737086064453 363.8951721191406,183.1690216064453 zM364.1295471191406,183.1690216064453 " id="svg_98" fill="#ffffff" fill-opacity="1"/></g></g></g><g fill="#ffffff" fill-opacity="1" id="svg_99" class=""><g id="svg_100" fill="#ffffff" fill-opacity="1"><g id="svg_101" fill="#ffffff" fill-opacity="1"><path d="M377.4382629394531,180.6377716064453 L369.4851379394531,180.6377716064453 C369.5671689394531,181.7119906064453 369.8679499394531,182.4932406064453 370.3913879394531,182.9815216064453 C370.9226379394531,183.4737086064453 371.6413879394531,183.7158966064453 372.5476379394531,183.7158966064453 C373.25466893945315,183.7158966064453 373.8288879394531,183.5869906064453 374.2663879394531,183.3252716064453 C374.7116999394531,183.0557406064453 375.0710759394531,182.6494906064453 375.3445129394531,182.1065216064453 L375.5788879394531,182.1065216064453 L377.6413879394531,183.4346466064453 C377.2429499394531,184.3096466064453 376.6335759394531,185.0205846064453 375.8132629394531,185.5596466064453 C375.0007629394531,186.0908966064453 373.91091893945315,186.3565216064453 372.5476379394531,186.3565216064453 C371.2663879394531,186.3565216064453 370.1570129394531,186.1182403564453 369.2195129394531,185.6377716064453 C368.2898259394531,185.1494906064453 367.5710759394531,184.4268346064453 367.0632629394531,183.4658966064453 C366.5632629394531,182.4971466064453 366.3132629394531,181.3213656064453 366.3132629394531,179.9346466064453 C366.3132629394531,178.5283966064453 366.5788879394531,177.3408966064453 367.1101379394531,176.3721466064453 C367.6413879394531,175.4033966064453 368.3601379394531,174.6846466064453 369.2663879394531,174.2158966064453 C370.1726379394531,173.7393346064453 371.1921689394531,173.4971466064453 372.3288879394531,173.4971466064453 C374.0788879394531,173.4971466064453 375.4148259394531,173.9619906064453 376.3445129394531,174.8877716064453 C377.2820129394531,175.8174586064453 377.7507629394531,177.1807406064453 377.7507629394531,178.9815216064453 C377.7507629394531,179.6299586064453 377.7273259394531,180.1338656064453 377.6882629394531,180.4971466064453 zM374.7663879394531,178.6221466064453 C374.7429499394531,177.6768346064453 374.5241999394531,176.9893346064453 374.1101379394531,176.5596466064453 C373.7038879394531,176.1338656064453 373.1101379394531,175.9190216064453 372.3288879394531,175.9190216064453 C370.7546689394531,175.9190216064453 369.8288879394531,176.8213656064453 369.5476379394531,178.6221466064453 zM374.7663879394531,178.6221466064453 " id="svg_102" fill="#ffffff" fill-opacity="1"/></g></g></g><g fill="#000000" fill-opacity="1" id="svg_103"><g id="svg_104"><g id="svg_105"/></g></g><g fill="#ffffff" fill-opacity="1" id="svg_106" class=""><g id="svg_107" fill="#ffffff" fill-opacity="1"><g id="svg_108" fill="#ffffff" fill-opacity="1"><path d="M396.8215026855469,175.8721466064453 L396.8215026855469,169.7002716064453 L400.0558776855469,169.7002716064453 L400.0558776855469,186.1221466064453 L396.8215026855469,186.1221466064453 L396.8215026855469,178.6377716064453 L389.4621276855469,178.6377716064453 L389.4621276855469,186.1221466064453 L386.2277526855469,186.1221466064453 L386.2277526855469,169.7002716064453 L389.4621276855469,169.7002716064453 L389.4621276855469,175.8721466064453 zM396.8215026855469,175.8721466064453 " id="svg_109" fill="#ffffff" fill-opacity="1"/></g></g></g><g fill="#ffffff" fill-opacity="1" id="svg_110" class=""><g id="svg_111" fill="#ffffff" fill-opacity="1"><g id="svg_112" fill="#ffffff" fill-opacity="1"><path d="M414.43011474609375,180.6377716064453 L406.47698974609375,180.6377716064453 C406.5590207460937,181.7119906064453 406.85980174609375,182.4932406064453 407.38323974609375,182.9815216064453 C407.91448974609375,183.4737086064453 408.63323974609375,183.7158966064453 409.53948974609375,183.7158966064453 C410.2465207460938,183.7158966064453 410.82073974609375,183.5869906064453 411.25823974609375,183.3252716064453 C411.70355174609375,183.0557406064453 412.06292774609375,182.6494906064453 412.33636474609375,182.1065216064453 L412.57073974609375,182.1065216064453 L414.63323974609375,183.4346466064453 C414.23480174609375,184.3096466064453 413.62542774609375,185.0205846064453 412.80511474609375,185.5596466064453 C411.99261474609375,186.0908966064453 410.9027707460938,186.3565216064453 409.53948974609375,186.3565216064453 C408.25823974609375,186.3565216064453 407.14886474609375,186.1182403564453 406.21136474609375,185.6377716064453 C405.28167774609375,185.1494906064453 404.56292774609375,184.4268346064453 404.05511474609375,183.4658966064453 C403.55511474609375,182.4971466064453 403.30511474609375,181.3213656064453 403.30511474609375,179.9346466064453 C403.30511474609375,178.5283966064453 403.57073974609375,177.3408966064453 404.10198974609375,176.3721466064453 C404.63323974609375,175.4033966064453 405.35198974609375,174.6846466064453 406.25823974609375,174.2158966064453 C407.16448974609375,173.7393346064453 408.1840207460937,173.4971466064453 409.32073974609375,173.4971466064453 C411.07073974609375,173.4971466064453 412.40667774609375,173.9619906064453 413.33636474609375,174.8877716064453 C414.27386474609375,175.8174586064453 414.74261474609375,177.1807406064453 414.74261474609375,178.9815216064453 C414.74261474609375,179.6299586064453 414.71917774609375,180.1338656064453 414.68011474609375,180.4971466064453 zM411.75823974609375,178.6221466064453 C411.73480174609375,177.6768346064453 411.51605174609375,176.9893346064453 411.10198974609375,176.5596466064453 C410.69573974609375,176.1338656064453 410.10198974609375,175.9190216064453 409.32073974609375,175.9190216064453 C407.7465207460937,175.9190216064453 406.82073974609375,176.8213656064453 406.53948974609375,178.6221466064453 zM411.75823974609375,178.6221466064453 " id="svg_113" fill="#ffffff" fill-opacity="1"/></g></g></g><g fill="#ffffff" fill-opacity="1" id="svg_114" class=""><g id="svg_115" fill="#ffffff" fill-opacity="1"><g id="svg_116" fill="#ffffff" fill-opacity="1"><path d="M420.484619140625,186.3565216064453 C419.691650140625,186.3565216064453 419.004150140625,186.2080841064453 418.422119140625,185.9190216064453 C417.836182140625,185.6299586064453 417.383056140625,185.2002716064453 417.062744140625,184.6377716064453 C416.750244140625,184.0674586064453 416.593994140625,183.3838656064453 416.593994140625,182.5908966064453 C416.593994140625,181.8643346064453 416.750244140625,181.2471466064453 417.062744140625,180.7471466064453 C417.383056140625,180.2471466064453 417.875244140625,179.8408966064453 418.531494140625,179.5283966064453 C419.187744140625,179.2080846064453 420.047119140625,178.9619906064453 421.109619140625,178.7940216064453 C421.847900140625,178.6690216064453 422.410400140625,178.5401156064453 422.797119140625,178.4033966064453 C423.191650140625,178.2588656064453 423.453369140625,178.0987086064453 423.578369140625,177.9190216064453 C423.711182140625,177.7315216064453 423.781494140625,177.5049586064453 423.781494140625,177.2315216064453 C423.781494140625,176.8369906064453 423.640869140625,176.5362086064453 423.359619140625,176.3252716064453 C423.086182140625,176.1065216064453 422.629150140625,175.9971466064453 421.984619140625,175.9971466064453 C421.297119140625,175.9971466064453 420.640869140625,176.1533966064453 420.015869140625,176.4658966064453 C419.398682140625,176.7705846064453 418.863525140625,177.1690216064453 418.406494140625,177.6690216064453 L418.187744140625,177.6690216064453 L416.875244140625,175.7158966064453 C417.508056140625,175.0205846064453 418.281494140625,174.4776156064453 419.187744140625,174.0908966064453 C420.093994140625,173.6963656064453 421.078369140625,173.4971466064453 422.140869140625,173.4971466064453 C423.78540014062503,173.4971466064453 424.97290014062503,173.8487086064453 425.703369140625,174.5440216064453 C426.44165014062503,175.2432406064453 426.812744140625,176.2315216064453 426.812744140625,177.5127716064453 L426.812744140625,182.8877716064453 C426.812744140625,183.4424586064453 427.05102514062503,183.7158966064453 427.531494140625,183.7158966064453 C427.718994140625,183.7158966064453 427.906494140625,183.6846466064453 428.093994140625,183.6221466064453 L428.250244140625,183.6690216064453 L428.468994140625,185.8252716064453 C428.30102514062503,185.9424586064453 428.062744140625,186.0362091064453 427.750244140625,186.1065216064453 C427.445556140625,186.1768341064453 427.109619140625,186.2158966064453 426.734619140625,186.2158966064453 C425.992432140625,186.2158966064453 425.414306140625,186.0752716064453 425.000244140625,185.7940216064453 C424.58227514062503,185.5049586064453 424.28540014062503,185.0557406064453 424.109619140625,184.4502716064453 L423.875244140625,184.4190216064453 C423.269775140625,185.7119906064453 422.140869140625,186.3565216064453 420.484619140625,186.3565216064453 zM421.468994140625,184.0283966064453 C422.187744140625,184.0283966064453 422.758056140625,183.7901156064453 423.187744140625,183.3096466064453 C423.625244140625,182.8330846064453 423.843994140625,182.1612086064453 423.843994140625,181.2940216064453 L423.843994140625,180.0283966064453 L423.625244140625,179.9971466064453 C423.437744140625,180.1455846064453 423.191650140625,180.2705846064453 422.890869140625,180.3721466064453 C422.586182140625,180.4658966064453 422.156494140625,180.5674586064453 421.593994140625,180.6690216064453 C420.914306140625,180.7744906064453 420.426025140625,180.9658966064453 420.125244140625,181.2471466064453 C419.832275140625,181.5205846064453 419.687744140625,181.9033966064453 419.687744140625,182.4033966064453 C419.687744140625,182.9346466064453 419.843994140625,183.3408966064453 420.156494140625,183.6221466064453 C420.468994140625,183.8955846064453 420.906494140625,184.0283966064453 421.468994140625,184.0283966064453 zM421.468994140625,184.0283966064453 " id="svg_117" fill="#ffffff" fill-opacity="1"/></g></g></g><g fill="#ffffff" fill-opacity="1" id="svg_118" class=""><g id="svg_119" fill="#ffffff" fill-opacity="1"><g id="svg_120" fill="#ffffff" fill-opacity="1"><path d="M433.85369873046875,186.3565216064453 C432.73651173046875,186.3565216064453 431.88494873046875,186.05574040644532 431.29119873046875,185.4502716064453 C430.70526173046875,184.8487086064453 430.41619873046875,183.9307406064453 430.41619873046875,182.7002716064453 L430.41619873046875,168.7627716064453 L433.52557373046875,168.7627716064453 L433.52557373046875,182.5908966064453 C433.52557373046875,183.3408966064453 433.8419797304687,183.7158966064453 434.47869873046875,183.7158966064453 C434.6544797304687,183.7158966064453 434.8419797304687,183.6846466064453 435.04119873046875,183.6221466064453 L435.19744873046875,183.6690216064453 L435.47869873046875,186.0596466064453 C435.3107297304687,186.1533966064453 435.08026173046875,186.2237086064453 434.79119873046875,186.2783966064453 C434.50994873046875,186.3291776064453 434.19744873046875,186.3565216064453 433.85369873046875,186.3565216064453 zM433.85369873046875,186.3565216064453 " id="svg_121" fill="#ffffff" fill-opacity="1"/></g></g></g><g fill="#ffffff" fill-opacity="1" id="svg_122" class=""><g id="svg_123" fill="#ffffff" fill-opacity="1"><g id="svg_124" fill="#ffffff" fill-opacity="1"><path d="M444.3776550292969,183.1690216064453 L445.1901550292969,185.4658966064453 C444.8464050292969,185.7471466064453 444.4167180292969,185.9658966064453 443.9089050292969,186.1221466064453 C443.4089050292969,186.2783966064453 442.83468602929685,186.3565216064453 442.1901550292969,186.3565216064453 C440.8464050292969,186.3565216064453 439.8229680292969,185.9932406064453 439.1276550292969,185.2627716064453 C438.42843602929685,184.5362086064453 438.0807800292969,183.4737086064453 438.0807800292969,182.0752716064453 L438.0807800292969,176.2002716064453 L436.2057800292969,176.2002716064453 L436.2057800292969,173.7158966064453 L438.0807800292969,173.7158966064453 L438.0807800292969,171.3096466064453 L441.2057800292969,170.8096466064453 L441.2057800292969,173.7158966064453 L444.7214050292969,173.7158966064453 L444.7214050292969,176.2002716064453 L441.2057800292969,176.2002716064453 L441.2057800292969,181.8565216064453 C441.2057800292969,182.4737086064453 441.3307800292969,182.9190216064453 441.5807800292969,183.2002716064453 C441.8307800292969,183.4815216064453 442.1979680292969,183.6221466064453 442.6901550292969,183.6221466064453 C443.24093602929685,183.6221466064453 443.72531102929685,183.4737086064453 444.1432800292969,183.1690216064453 zM444.3776550292969,183.1690216064453 " id="svg_125" fill="#ffffff" fill-opacity="1"/></g></g></g><g fill="#ffffff" fill-opacity="1" id="svg_126" class=""><g id="svg_127" fill="#ffffff" fill-opacity="1"><g id="svg_128" fill="#ffffff" fill-opacity="1"><path d="M447.2332763671875,186.1221466064453 L447.2332763671875,168.7627716064453 L450.3426513671875,168.7627716064453 L450.3426513671875,175.3565216064453 L450.5770263671875,175.4033966064453 C450.9910883671875,174.7901156064453 451.4989013671875,174.3213656064453 452.0926513671875,173.9971466064453 C452.6942143671875,173.6651156064453 453.4207763671875,173.4971466064453 454.2645263671875,173.4971466064453 C457.00280736718753,173.4971466064453 458.3739013671875,175.0518346064453 458.3739013671875,178.1533966064453 L458.3739013671875,186.1221466064453 L455.2489013671875,186.1221466064453 L455.2489013671875,178.5440216064453 C455.2489013671875,177.7002716064453 455.08093236718753,177.0869906064453 454.7489013671875,176.7002716064453 C454.4129643671875,176.3174586064453 453.89343236718753,176.1221466064453 453.1864013671875,176.1221466064453 C452.3114013671875,176.1221466064453 451.6160883671875,176.4151156064453 451.1082763671875,176.9971466064453 C450.5965573671875,177.5830846064453 450.3426513671875,178.4893346064453 450.3426513671875,179.7158966064453 L450.3426513671875,186.1221466064453 zM447.2332763671875,186.1221466064453 " id="svg_129" fill="#ffffff" fill-opacity="1"/></g></g></g><g fill="#000000" fill-opacity="1" id="svg_130"><g id="svg_131"><g id="svg_132"/></g></g><g fill="#ffffff" fill-opacity="1" id="svg_133" class=""><g id="svg_134" fill="#ffffff" fill-opacity="1"><g id="svg_135" fill="#ffffff" fill-opacity="1"><path d="M472.09808349609375,186.3565216064453 C470.91058349609375,186.3565216064453 469.8676144960937,186.1533966064453 468.97308349609375,185.7471466064453 C468.07464549609375,185.3408966064453 467.38714549609375,184.7627716064453 466.91058349609375,184.0127716064453 C466.4301144960937,183.2627716064453 466.19183349609375,182.3877716064453 466.19183349609375,181.3877716064453 C466.19183349609375,180.3057406064453 466.45745849609375,179.4112086064453 466.98870849609375,178.7002716064453 C467.52777149609375,177.9815216064453 468.34027149609375,177.3955846064453 469.42620849609375,176.9346466064453 L469.45745849609375,176.7002716064453 C468.95745849609375,176.0987086064453 468.59808349609375,175.5401156064453 468.37933349609375,175.0283966064453 C468.16839549609375,174.5088656064453 468.06683349609375,173.9424586064453 468.06683349609375,173.3252716064453 C468.06683349609375,172.5752716064453 468.2426144960937,171.9112086064453 468.59808349609375,171.3252716064453 C468.9613644960937,170.7432406064453 469.48089549609375,170.2901156064453 470.16058349609375,169.9658966064453 C470.84808349609375,169.6338656064453 471.6644894960937,169.4658966064453 472.61370849609375,169.4658966064453 C473.5082394960938,169.4658966064453 474.2738644960938,169.6182406064453 474.91058349609375,169.9190216064453 C475.5551144960938,170.2237086064453 476.04339549609375,170.6377716064453 476.37933349609375,171.1690216064453 C476.72308349609375,171.7002716064453 476.89495849609375,172.3096466064453 476.89495849609375,172.9971466064453 C476.89495849609375,173.9346466064453 476.61370849609375,174.7549586064453 476.05120849609375,175.4502716064453 C475.49652149609375,176.1377716064453 474.6332394960938,176.7080846064453 473.45745849609375,177.1533966064453 L473.42620849609375,177.3877716064453 L476.45745849609375,181.3877716064453 C476.64495849609375,181.0049586064453 476.76995849609375,180.5596466064453 476.83245849609375,180.0596466064453 C476.90277149609375,179.5518346064453 476.94183349609375,178.9776156064453 476.94183349609375,178.3408966064453 L476.94183349609375,177.7627716064453 L479.56683349609375,177.7627716064453 C479.56683349609375,180.0752716064453 479.11370849609375,181.9424586064453 478.20745849609375,183.3565216064453 C478.39495849609375,183.5127716064453 478.5551144960938,183.6221466064453 478.69183349609375,183.6846466064453 C478.82464549609375,183.7393346064453 478.9769894960938,183.7627716064453 479.14495849609375,183.7627716064453 C479.30120849609375,183.7627716064453 479.42620849609375,183.7588656064453 479.51995849609375,183.7471466064453 C479.62152149609375,183.7276156064453 479.73089549609375,183.7002716064453 479.84808349609375,183.6690216064453 L480.01995849609375,183.7002716064453 L480.41058349609375,185.9658966064453 C480.2738644960938,186.0596466064453 480.0707394960938,186.1299591064453 479.80120849609375,186.1846466064453 C479.5394894960938,186.2354276064453 479.25433349609375,186.2627716064453 478.94183349609375,186.2627716064453 C478.38714549609375,186.2627716064453 477.90277149609375,186.1729278064453 477.48870849609375,185.9971466064453 C477.0707394960938,185.8213656064453 476.67620849609375,185.5440216064453 476.30120849609375,185.1690216064453 L476.06683349609375,185.1690216064453 C475.13714549609375,185.9619906064453 473.81683349609375,186.3565216064453 472.09808349609375,186.3565216064453 zM472.08245849609375,175.6065216064453 C472.77777149609375,175.2549586064453 473.28558349609375,174.8994906064453 473.59808349609375,174.5440216064453 C473.91058349609375,174.1924586064453 474.06683349609375,173.7471466064453 474.06683349609375,173.2158966064453 C474.06683349609375,172.7588656064453 473.9301144960938,172.4033966064453 473.66058349609375,172.1533966064453 C473.3988644960938,171.8955846064453 473.0394894960937,171.7627716064453 472.58245849609375,171.7627716064453 C472.11370849609375,171.7627716064453 471.73870849609375,171.8994906064453 471.45745849609375,172.1690216064453 C471.17620849609375,172.4424586064453 471.03558349609375,172.8096466064453 471.03558349609375,173.2783966064453 C471.03558349609375,173.6455846064453 471.10589549609375,173.9893346064453 471.25433349609375,174.3096466064453 C471.41058349609375,174.6221466064453 471.68402149609375,175.0557406064453 472.08245849609375,175.6065216064453 zM472.48870849609375,183.6846466064453 C473.20745849609375,183.6846466064453 473.8207394960938,183.5440216064453 474.33245849609375,183.2627716064453 L470.67620849609375,178.6221466064453 C470.24652149609375,178.9033966064453 469.9301144960937,179.2393346064453 469.72308349609375,179.6221466064453 C469.51214549609375,180.0088656064453 469.41058349609375,180.4658966064453 469.41058349609375,180.9971466064453 C469.41058349609375,181.5283966064453 469.53558349609375,182.0049586064453 469.78558349609375,182.4190216064453 C470.03558349609375,182.8252716064453 470.38714549609375,183.1377716064453 470.84808349609375,183.3565216064453 C471.31683349609375,183.5752716064453 471.86370849609375,183.6846466064453 472.48870849609375,183.6846466064453 zM472.48870849609375,183.6846466064453 " id="svg_136" fill="#ffffff" fill-opacity="1"/></g></g></g><g fill="#000000" fill-opacity="1" id="svg_137"><g id="svg_138"><g id="svg_139"/></g></g><g fill="#ffffff" fill-opacity="1" id="svg_140" class=""><g id="svg_141" fill="#ffffff" fill-opacity="1"><g id="svg_142" fill="#ffffff" fill-opacity="1"><path d="M493.9811706542969,186.1221466064453 L490.3561706542969,186.1221466064453 L486.5905456542969,169.7002716064453 L489.8249206542969,169.7002716064453 L492.3092956542969,181.2471466064453 L492.5905456542969,181.2471466064453 L495.5280456542969,169.7002716064453 L498.2936706542969,169.7002716064453 L501.2936706542969,181.2471466064453 L501.5749206542969,181.2471466064453 L504.0749206542969,169.7002716064453 L507.1999206542969,169.7002716064453 L503.4499206542969,186.1221466064453 L499.8092956542969,186.1221466064453 L496.9342956542969,175.5283966064453 L496.6999206542969,175.5283966064453 zM493.9811706542969,186.1221466064453 " id="svg_143" fill="#ffffff" fill-opacity="1"/></g></g></g><g fill="#ffffff" fill-opacity="1" id="svg_144" class=""><g id="svg_145" fill="#ffffff" fill-opacity="1"><g id="svg_146" fill="#ffffff" fill-opacity="1"><path d="M519.8595886230469,180.6377716064453 L511.9064636230469,180.6377716064453 C511.98849462304685,181.7119906064453 512.2892756230468,182.4932406064453 512.8127136230469,182.9815216064453 C513.3439636230469,183.4737086064453 514.0627136230469,183.7158966064453 514.9689636230469,183.7158966064453 C515.6759946230469,183.7158966064453 516.2502136230469,183.5869906064453 516.6877136230469,183.3252716064453 C517.1330256230468,183.0557406064453 517.4924016230469,182.6494906064453 517.7658386230469,182.1065216064453 L518.0002136230469,182.1065216064453 L520.0627136230469,183.4346466064453 C519.6642756230468,184.3096466064453 519.0549016230469,185.0205846064453 518.2345886230469,185.5596466064453 C517.4220886230469,186.0908966064453 516.3322446230469,186.3565216064453 514.9689636230469,186.3565216064453 C513.6877136230469,186.3565216064453 512.5783386230469,186.1182403564453 511.6408386230469,185.6377716064453 C510.7111516230469,185.1494906064453 509.9924016230469,184.4268346064453 509.4845886230469,183.4658966064453 C508.9845886230469,182.4971466064453 508.7345886230469,181.3213656064453 508.7345886230469,179.9346466064453 C508.7345886230469,178.5283966064453 509.0002136230469,177.3408966064453 509.5314636230469,176.3721466064453 C510.0627136230469,175.4033966064453 510.7814636230469,174.6846466064453 511.6877136230469,174.2158966064453 C512.5939636230469,173.7393346064453 513.6134946230469,173.4971466064453 514.7502136230469,173.4971466064453 C516.5002136230469,173.4971466064453 517.8361516230469,173.9619906064453 518.7658386230469,174.8877716064453 C519.7033386230469,175.8174586064453 520.1720886230469,177.1807406064453 520.1720886230469,178.9815216064453 C520.1720886230469,179.6299586064453 520.1486516230469,180.1338656064453 520.1095886230469,180.4971466064453 zM517.1877136230469,178.6221466064453 C517.1642756230468,177.6768346064453 516.9455256230468,176.9893346064453 516.5314636230469,176.5596466064453 C516.1252136230469,176.1338656064453 515.5314636230469,175.9190216064453 514.7502136230469,175.9190216064453 C513.1759946230469,175.9190216064453 512.2502136230469,176.8213656064453 511.9689636230469,178.6221466064453 zM517.1877136230469,178.6221466064453 " id="svg_147" fill="#ffffff" fill-opacity="1"/></g></g></g><g fill="#ffffff" fill-opacity="1" id="svg_148" class=""><g id="svg_149" fill="#ffffff" fill-opacity="1"><g id="svg_150" fill="#ffffff" fill-opacity="1"><path d="M526.2266235351562,186.3565216064453 C525.1094365351563,186.3565216064453 524.2578735351562,186.05574040644532 523.6641235351562,185.4502716064453 C523.0781865351563,184.8487086064453 522.7891235351562,183.9307406064453 522.7891235351562,182.7002716064453 L522.7891235351562,168.7627716064453 L525.8984985351562,168.7627716064453 L525.8984985351562,182.5908966064453 C525.8984985351562,183.3408966064453 526.2149045351563,183.7158966064453 526.8516235351562,183.7158966064453 C527.0274045351563,183.7158966064453 527.2149045351563,183.6846466064453 527.4141235351562,183.6221466064453 L527.5703735351562,183.6690216064453 L527.8516235351562,186.0596466064453 C527.6836545351563,186.1533966064453 527.4531865351563,186.2237086064453 527.1641235351562,186.2783966064453 C526.8828735351562,186.3291776064453 526.5703735351562,186.3565216064453 526.2266235351562,186.3565216064453 zM526.2266235351562,186.3565216064453 " id="svg_151" fill="#ffffff" fill-opacity="1"/></g></g></g><g fill="#ffffff" fill-opacity="1" id="svg_152" class=""><g id="svg_153" fill="#ffffff" fill-opacity="1"><g id="svg_154" fill="#ffffff" fill-opacity="1"><path d="M533.3442993164062,186.3565216064453 C532.2271123164063,186.3565216064453 531.3755493164062,186.05574040644532 530.7817993164062,185.4502716064453 C530.1958623164063,184.8487086064453 529.9067993164062,183.9307406064453 529.9067993164062,182.7002716064453 L529.9067993164062,168.7627716064453 L533.0161743164062,168.7627716064453 L533.0161743164062,182.5908966064453 C533.0161743164062,183.3408966064453 533.3325803164063,183.7158966064453 533.9692993164062,183.7158966064453 C534.1450803164063,183.7158966064453 534.3325803164063,183.6846466064453 534.5317993164062,183.6221466064453 L534.6880493164062,183.6690216064453 L534.9692993164062,186.0596466064453 C534.8013303164063,186.1533966064453 534.5708623164063,186.2237086064453 534.2817993164062,186.2783966064453 C534.0005493164062,186.3291776064453 533.6880493164062,186.3565216064453 533.3442993164062,186.3565216064453 zM533.3442993164062,186.3565216064453 " id="svg_155" fill="#ffffff" fill-opacity="1"/></g></g></g><g fill="#ffffff" fill-opacity="1" id="svg_156" class=""><g id="svg_157" fill="#ffffff" fill-opacity="1"><g id="svg_158" fill="#ffffff" fill-opacity="1"><path d="M537.1026000976562,186.1221466064453 L537.1026000976562,173.7315216064453 L540.0869750976562,173.7315216064453 L540.0869750976562,175.5596466064453 L540.3369750976562,175.6065216064453 C541.1065060976563,174.2002716064453 542.3565060976563,173.4971466064453 544.0869750976562,173.4971466064453 C545.5127560976563,173.4971466064453 546.5596310976563,173.8877716064453 547.2276000976562,174.6690216064453 C547.9033810976563,175.4502716064453 548.2432250976562,176.5869906064453 548.2432250976562,178.0752716064453 L548.2432250976562,186.1221466064453 L545.1182250976562,186.1221466064453 L545.1182250976562,178.4502716064453 C545.1182250976562,177.6299586064453 544.9502560976563,177.0362086064453 544.6182250976562,176.6690216064453 C544.2940060976563,176.3057406064453 543.7744750976562,176.1221466064453 543.0557250976562,176.1221466064453 C542.1572880976563,176.1221466064453 541.4619750976562,176.4151156064453 540.9619750976562,176.9971466064453 C540.4619750976562,177.5713656064453 540.2119750976562,178.4776156064453 540.2119750976562,179.7158966064453 L540.2119750976562,186.1221466064453 zM537.1026000976562,186.1221466064453 " id="svg_159" fill="#ffffff" fill-opacity="1"/></g></g></g><g fill="#ffffff" fill-opacity="1" id="svg_160" class=""><g id="svg_161" fill="#ffffff" fill-opacity="1"><g id="svg_162" fill="#ffffff" fill-opacity="1"><path d="M562.0606079101562,180.6377716064453 L554.1074829101562,180.6377716064453 C554.1895139101563,181.7119906064453 554.4902949101562,182.4932406064453 555.0137329101562,182.9815216064453 C555.5449829101562,183.4737086064453 556.2637329101562,183.7158966064453 557.1699829101562,183.7158966064453 C557.8770139101563,183.7158966064453 558.4512329101562,183.5869906064453 558.8887329101562,183.3252716064453 C559.3340449101562,183.0557406064453 559.6934209101563,182.6494906064453 559.9668579101562,182.1065216064453 L560.2012329101562,182.1065216064453 L562.2637329101562,183.4346466064453 C561.8652949101562,184.3096466064453 561.2559209101563,185.0205846064453 560.4356079101562,185.5596466064453 C559.6231079101562,186.0908966064453 558.5332639101563,186.3565216064453 557.1699829101562,186.3565216064453 C555.8887329101562,186.3565216064453 554.7793579101562,186.1182403564453 553.8418579101562,185.6377716064453 C552.9121709101563,185.1494906064453 552.1934209101563,184.4268346064453 551.6856079101562,183.4658966064453 C551.1856079101562,182.4971466064453 550.9356079101562,181.3213656064453 550.9356079101562,179.9346466064453 C550.9356079101562,178.5283966064453 551.2012329101562,177.3408966064453 551.7324829101562,176.3721466064453 C552.2637329101562,175.4033966064453 552.9824829101562,174.6846466064453 553.8887329101562,174.2158966064453 C554.7949829101562,173.7393346064453 555.8145139101563,173.4971466064453 556.9512329101562,173.4971466064453 C558.7012329101562,173.4971466064453 560.0371709101563,173.9619906064453 560.9668579101562,174.8877716064453 C561.9043579101562,175.8174586064453 562.3731079101562,177.1807406064453 562.3731079101562,178.9815216064453 C562.3731079101562,179.6299586064453 562.3496709101563,180.1338656064453 562.3106079101562,180.4971466064453 zM559.3887329101562,178.6221466064453 C559.3652949101562,177.6768346064453 559.1465449101562,176.9893346064453 558.7324829101562,176.5596466064453 C558.3262329101562,176.1338656064453 557.7324829101562,175.9190216064453 556.9512329101562,175.9190216064453 C555.3770139101563,175.9190216064453 554.4512329101562,176.8213656064453 554.1699829101562,178.6221466064453 zM559.3887329101562,178.6221466064453 " id="svg_163" fill="#ffffff" fill-opacity="1"/></g></g></g><g fill="#ffffff" fill-opacity="1" id="svg_164" class=""><g id="svg_165" fill="#ffffff" fill-opacity="1"><g id="svg_166" fill="#ffffff" fill-opacity="1"><path d="M569.0838623046875,186.3565216064453 C568.2401123046875,186.3565216064453 567.4627683046875,186.2549586064453 566.7557373046875,186.0596466064453 C566.0565183046875,185.8643346064453 565.4588623046875,185.5908966064453 564.9588623046875,185.2471466064453 C564.4588623046875,184.8955846064453 564.0877683046875,184.4932406064453 563.8494873046875,184.0440216064453 L565.5838623046875,182.1846466064453 L565.8182373046875,182.1846466064453 C566.2244873046875,182.7393346064453 566.7088623046875,183.1533966064453 567.2713623046875,183.4346466064453 C567.8338623046875,183.7080846064453 568.4432373046875,183.8408966064453 569.0994873046875,183.8408966064453 C569.7127683046875,183.8408966064453 570.1697993046874,183.7315216064453 570.4744873046875,183.5127716064453 C570.7752683046875,183.2940216064453 570.9276123046875,182.9893346064453 570.9276123046875,182.5908966064453 C570.9276123046875,182.2705846064453 570.8182373046875,182.0049586064453 570.5994873046875,181.7940216064453 C570.3807373046875,181.5752716064453 570.0252683046875,181.4112086064453 569.5369873046875,181.2940216064453 L567.8963623046875,180.9033966064453 C566.6658933046875,180.6143346064453 565.7635493046874,180.1651156064453 565.1932373046875,179.5596466064453 C564.6307373046875,178.9580846064453 564.3494873046875,178.1924586064453 564.3494873046875,177.2627716064453 C564.3494873046875,176.4932406064453 564.5447993046874,175.8252716064453 564.9432373046875,175.2627716064453 C565.3377683046875,174.6924586064453 565.8885493046874,174.2549586064453 566.5994873046875,173.9502716064453 C567.3182373046875,173.6494906064453 568.1502683046875,173.4971466064453 569.0994873046875,173.4971466064453 C570.2127683046875,173.4971466064453 571.1346433046875,173.6612086064453 571.8651123046875,173.9815216064453 C572.6033933046875,174.3057406064453 573.1815183046875,174.7393346064453 573.5994873046875,175.2783966064453 L571.9276123046875,177.0752716064453 L571.7088623046875,177.0752716064453 C571.3651123046875,176.6807406064453 570.9744873046875,176.3955846064453 570.5369873046875,176.2158966064453 C570.1072993046874,176.0401156064453 569.6307373046875,175.9502716064453 569.0994873046875,175.9502716064453 C567.8690183046875,175.9502716064453 567.2557373046875,176.3330846064453 567.2557373046875,177.0908966064453 C567.2557373046875,177.4151156064453 567.3690183046875,177.6807406064453 567.5994873046875,177.8877716064453 C567.8260493046874,178.0869906064453 568.2322993046874,178.2471466064453 568.8182373046875,178.3721466064453 L570.3338623046875,178.7158966064453 C571.5916753046876,178.9776156064453 572.5135493046874,179.4112086064453 573.0994873046875,180.0127716064453 C573.6815183046875,180.6065216064453 573.9744873046875,181.4033966064453 573.9744873046875,182.4033966064453 C573.9744873046875,183.1963656064453 573.7752683046875,183.8955846064453 573.3807373046875,184.4971466064453 C572.9940183046875,185.0908966064453 572.4315183046875,185.5518346064453 571.6932373046875,185.8721466064453 C570.9627683046875,186.1924591064453 570.0916753046876,186.3565216064453 569.0838623046875,186.3565216064453 zM569.0838623046875,186.3565216064453 " id="svg_167" fill="#ffffff" fill-opacity="1"/></g></g></g><g fill="#ffffff" fill-opacity="1" id="svg_168" class=""><g id="svg_169" fill="#ffffff" fill-opacity="1"><g id="svg_170" fill="#ffffff" fill-opacity="1"><path d="M580.5013427734375,186.3565216064453 C579.6575927734375,186.3565216064453 578.8802487734375,186.2549586064453 578.1732177734375,186.0596466064453 C577.4739987734375,185.8643346064453 576.8763427734375,185.5908966064453 576.3763427734375,185.2471466064453 C575.8763427734375,184.8955846064453 575.5052487734375,184.4932406064453 575.2669677734375,184.0440216064453 L577.0013427734375,182.1846466064453 L577.2357177734375,182.1846466064453 C577.6419677734375,182.7393346064453 578.1263427734375,183.1533966064453 578.6888427734375,183.4346466064453 C579.2513427734375,183.7080846064453 579.8607177734375,183.8408966064453 580.5169677734375,183.8408966064453 C581.1302487734375,183.8408966064453 581.5872797734374,183.7315216064453 581.8919677734375,183.5127716064453 C582.1927487734375,183.2940216064453 582.3450927734375,182.9893346064453 582.3450927734375,182.5908966064453 C582.3450927734375,182.2705846064453 582.2357177734375,182.0049586064453 582.0169677734375,181.7940216064453 C581.7982177734375,181.5752716064453 581.4427487734375,181.4112086064453 580.9544677734375,181.2940216064453 L579.3138427734375,180.9033966064453 C578.0833737734375,180.6143346064453 577.1810297734374,180.1651156064453 576.6107177734375,179.5596466064453 C576.0482177734375,178.9580846064453 575.7669677734375,178.1924586064453 575.7669677734375,177.2627716064453 C575.7669677734375,176.4932406064453 575.9622797734374,175.8252716064453 576.3607177734375,175.2627716064453 C576.7552487734375,174.6924586064453 577.3060297734374,174.2549586064453 578.0169677734375,173.9502716064453 C578.7357177734375,173.6494906064453 579.5677487734375,173.4971466064453 580.5169677734375,173.4971466064453 C581.6302487734375,173.4971466064453 582.5521237734375,173.6612086064453 583.2825927734375,173.9815216064453 C584.0208737734375,174.3057406064453 584.5989987734375,174.7393346064453 585.0169677734375,175.2783966064453 L583.3450927734375,177.0752716064453 L583.1263427734375,177.0752716064453 C582.7825927734375,176.6807406064453 582.3919677734375,176.3955846064453 581.9544677734375,176.2158966064453 C581.5247797734374,176.0401156064453 581.0482177734375,175.9502716064453 580.5169677734375,175.9502716064453 C579.2864987734375,175.9502716064453 578.6732177734375,176.3330846064453 578.6732177734375,177.0908966064453 C578.6732177734375,177.4151156064453 578.7864987734375,177.6807406064453 579.0169677734375,177.8877716064453 C579.2435297734374,178.0869906064453 579.6497797734374,178.2471466064453 580.2357177734375,178.3721466064453 L581.7513427734375,178.7158966064453 C583.0091557734376,178.9776156064453 583.9310297734374,179.4112086064453 584.5169677734375,180.0127716064453 C585.0989987734375,180.6065216064453 585.3919677734375,181.4033966064453 585.3919677734375,182.4033966064453 C585.3919677734375,183.1963656064453 585.1927487734375,183.8955846064453 584.7982177734375,184.4971466064453 C584.4114987734375,185.0908966064453 583.8489987734375,185.5518346064453 583.1107177734375,185.8721466064453 C582.3802487734375,186.1924591064453 581.5091557734376,186.3565216064453 580.5013427734375,186.3565216064453 zM580.5013427734375,186.3565216064453 " id="svg_171" fill="#ffffff" fill-opacity="1"/></g></g></g></g></svg>