<svg xmlns="http://www.w3.org/2000/svg" xmlns:xlink="http://www.w3.org/1999/xlink" zoomAndPan="magnify" preserveAspectRatio="xMidYMid meet" version="1.0" viewBox="2.56 108.24 594.87 83.13"><defs><g/></defs><g fill="#000000" fill-opacity="1"><g transform="translate(1.417981, 159.272008)"><g><path d="M 39.46875 -39.328125 L 39.46875 -51.03125 L 1.140625 -51.03125 L 1.140625 -39.328125 L 14 -39.328125 L 14 0 L 26.78125 0 L 26.78125 -39.328125 Z M 39.46875 -39.328125 "/></g></g></g><g fill="#000000" fill-opacity="1"><g transform="translate(42.033208, 159.272008)"><g><path d="M 40.3125 0 L 40.3125 -51.03125 L 27.546875 -51.03125 L 27.546875 -31.28125 L 14.765625 -31.28125 L 14.765625 -51.03125 L 1.984375 -51.03125 L 1.984375 0 L 14.765625 0 L 14.765625 -20.046875 L 27.546875 -20.046875 L 27.546875 0 Z M 40.3125 0 "/></g></g></g><g fill="#000000" fill-opacity="1"><g transform="translate(84.331174, 159.272008)"><g><path d="M 40.15625 0 L 40.15625 -11.625 L 14.765625 -11.625 L 14.765625 -20.046875 L 40.15625 -20.046875 L 40.15625 -31.28125 L 14.765625 -31.28125 L 14.765625 -39.328125 L 40.15625 -39.328125 L 40.15625 -51.03125 L 1.984375 -51.03125 L 1.984375 0 Z M 40.15625 0 "/></g></g></g><g fill="#000000" fill-opacity="1"><g transform="translate(126.476168, 159.272008)"><g/></g></g><g fill="#f29621" fill-opacity="1"><g transform="translate(153.257812, 159.272008)"><g><path d="M 40.3125 0 L 40.3125 -51.03125 L 27.546875 -51.03125 L 27.546875 -31.28125 L 14.765625 -31.28125 L 14.765625 -51.03125 L 1.984375 -51.03125 L 1.984375 0 L 14.765625 0 L 14.765625 -20.046875 L 27.546875 -20.046875 L 27.546875 0 Z M 40.3125 0 "/></g></g></g><g fill="#f29621" fill-opacity="1"><g transform="translate(195.555778, 159.272008)"><g><path d="M 40.15625 0 L 40.15625 -11.625 L 14.765625 -11.625 L 14.765625 -20.046875 L 40.15625 -20.046875 L 40.15625 -31.28125 L 14.765625 -31.28125 L 14.765625 -39.328125 L 40.15625 -39.328125 L 40.15625 -51.03125 L 1.984375 -51.03125 L 1.984375 0 Z M 40.15625 0 "/></g></g></g><g fill="#f29621" fill-opacity="1"><g transform="translate(237.700772, 159.272008)"><g><path d="M 40.3125 0 L 40.3125 -51.03125 L 1.984375 -51.03125 L 1.984375 0 L 14.765625 0 L 14.765625 -14.234375 L 27.546875 -14.234375 L 27.546875 0 Z M 27.546875 -25.859375 L 14.765625 -25.859375 L 14.765625 -39.328125 L 27.546875 -39.328125 Z M 27.546875 -25.859375 "/></g></g></g><g fill="#f29621" fill-opacity="1"><g transform="translate(279.998738, 159.272008)"><g><path d="M 40.15625 0 L 40.15625 -11.625 L 14.765625 -11.625 L 14.765625 -51.03125 L 1.984375 -51.03125 L 1.984375 0 Z M 40.15625 0 "/></g></g></g><g fill="#f29621" fill-opacity="1"><g transform="translate(321.6848, 159.272008)"><g><path d="M 39.46875 -39.328125 L 39.46875 -51.03125 L 1.140625 -51.03125 L 1.140625 -39.328125 L 14 -39.328125 L 14 0 L 26.78125 0 L 26.78125 -39.328125 Z M 39.46875 -39.328125 "/></g></g></g><g fill="#f29621" fill-opacity="1"><g transform="translate(362.300016, 159.272008)"><g><path d="M 40.3125 0 L 40.3125 -51.03125 L 27.546875 -51.03125 L 27.546875 -31.28125 L 14.765625 -31.28125 L 14.765625 -51.03125 L 1.984375 -51.03125 L 1.984375 0 L 14.765625 0 L 14.765625 -20.046875 L 27.546875 -20.046875 L 27.546875 0 Z M 40.3125 0 "/></g></g></g><g fill="#000000" fill-opacity="1"><g transform="translate(404.601541, 159.272008)"><g/></g></g><g fill="#000000" fill-opacity="1"><g transform="translate(431.372406, 159.272008)"><g><path d="M 40.3125 0 L 40.3125 -31.28125 L 14.765625 -31.28125 L 14.765625 -39.328125 L 40.3125 -39.328125 L 40.3125 -51.03125 L 1.984375 -51.03125 L 1.984375 -20.046875 L 27.546875 -20.046875 L 27.546875 -11.625 L 1.984375 -11.625 L 1.984375 0 Z M 40.3125 0 "/></g></g></g><g fill="#000000" fill-opacity="1"><g transform="translate(473.593892, 159.272008)"><g><path d="M 40.3125 -14.234375 L 40.3125 -51.03125 L 1.984375 -51.03125 L 1.984375 0 L 14.765625 0 L 14.765625 -14.234375 Z M 27.546875 -25.859375 L 14.765625 -25.859375 L 14.765625 -39.328125 L 27.546875 -39.328125 Z M 27.546875 -25.859375 "/></g></g></g><g fill="#000000" fill-opacity="1"><g transform="translate(515.662393, 159.272008)"><g><path d="M 40.3125 0 L 40.3125 -51.03125 L 1.984375 -51.03125 L 1.984375 0 Z M 27.546875 -11.625 L 14.765625 -11.625 L 14.765625 -39.328125 L 27.546875 -39.328125 Z M 27.546875 -11.625 "/></g></g></g><g fill="#000000" fill-opacity="1"><g transform="translate(557.960359, 159.272008)"><g><path d="M 39.46875 -39.328125 L 39.46875 -51.03125 L 1.140625 -51.03125 L 1.140625 -39.328125 L 14 -39.328125 L 14 0 L 26.78125 0 L 26.78125 -39.328125 Z M 39.46875 -39.328125 "/></g></g></g><g fill="#000000" fill-opacity="1"><g transform="translate(243.956048, 186.122152)"><g><path d="M 8.65625 0.234375 C 7.082031 0.234375 5.90625 -0.351562 5.125 -1.53125 L 4.890625 -1.5 L 4.890625 0 L 1.78125 0 L 1.78125 -17.359375 L 4.890625 -17.359375 L 4.890625 -10.921875 L 5.125 -10.875 C 5.550781 -11.46875 6.054688 -11.90625 6.640625 -12.1875 C 7.222656 -12.476562 7.914062 -12.625 8.71875 -12.625 C 9.726562 -12.625 10.609375 -12.382812 11.359375 -11.90625 C 12.109375 -11.4375 12.691406 -10.722656 13.109375 -9.765625 C 13.523438 -8.804688 13.734375 -7.613281 13.734375 -6.1875 C 13.734375 -4.78125 13.515625 -3.59375 13.078125 -2.625 C 12.648438 -1.664062 12.050781 -0.945312 11.28125 -0.46875 C 10.519531 0 9.644531 0.234375 8.65625 0.234375 Z M 7.71875 -2.40625 C 8.625 -2.40625 9.316406 -2.707031 9.796875 -3.3125 C 10.273438 -3.925781 10.515625 -4.882812 10.515625 -6.1875 C 10.515625 -7.5 10.273438 -8.457031 9.796875 -9.0625 C 9.316406 -9.675781 8.625 -9.984375 7.71875 -9.984375 C 6.84375 -9.984375 6.144531 -9.664062 5.625 -9.03125 C 5.113281 -8.40625 4.859375 -7.457031 4.859375 -6.1875 C 4.859375 -4.914062 5.113281 -3.96875 5.625 -3.34375 C 6.144531 -2.71875 6.84375 -2.40625 7.71875 -2.40625 Z M 7.71875 -2.40625 "/></g></g></g><g fill="#000000" fill-opacity="1"><g transform="translate(258.786457, 186.122152)"><g><path d="M 2.734375 5.25 C 2.203125 5.25 1.722656 5.207031 1.296875 5.125 C 0.867188 5.050781 0.519531 4.945312 0.25 4.8125 L 0.734375 2.296875 L 0.9375 2.21875 C 1.125 2.320312 1.359375 2.398438 1.640625 2.453125 C 1.921875 2.515625 2.207031 2.546875 2.5 2.546875 C 3 2.546875 3.414062 2.476562 3.75 2.34375 C 4.082031 2.21875 4.363281 2.003906 4.59375 1.703125 C 4.820312 1.398438 5.03125 0.976562 5.21875 0.4375 L 0.265625 -12.390625 L 3.53125 -12.390625 L 6.609375 -3.78125 L 6.875 -3.78125 L 9.875 -12.390625 L 13.03125 -12.390625 L 8.0625 0.78125 C 7.664062 1.84375 7.226562 2.695312 6.75 3.34375 C 6.28125 3.988281 5.71875 4.46875 5.0625 4.78125 C 4.414062 5.09375 3.640625 5.25 2.734375 5.25 Z M 2.734375 5.25 "/></g></g></g><g fill="#000000" fill-opacity="1"><g transform="translate(272.078815, 186.122152)"><g/></g></g><g fill="#000000" fill-opacity="1"><g transform="translate(277.501288, 186.122152)"><g><path d="M 15.75 0 L 12.34375 0 L 11.109375 -3.78125 L 4.8125 -3.78125 L 3.578125 0 L 0.25 0 L 5.921875 -16.421875 L 10.078125 -16.421875 Z M 7.8125 -13 L 5.6875 -6.515625 L 10.203125 -6.515625 L 8.09375 -13 Z M 7.8125 -13 "/></g></g></g><g fill="#000000" fill-opacity="1"><g transform="translate(293.499269, 186.122152)"><g><path d="M 8.65625 0.234375 C 7.082031 0.234375 5.90625 -0.351562 5.125 -1.53125 L 4.890625 -1.5 L 4.890625 0 L 1.78125 0 L 1.78125 -17.359375 L 4.890625 -17.359375 L 4.890625 -10.921875 L 5.125 -10.875 C 5.550781 -11.46875 6.054688 -11.90625 6.640625 -12.1875 C 7.222656 -12.476562 7.914062 -12.625 8.71875 -12.625 C 9.726562 -12.625 10.609375 -12.382812 11.359375 -11.90625 C 12.109375 -11.4375 12.691406 -10.722656 13.109375 -9.765625 C 13.523438 -8.804688 13.734375 -7.613281 13.734375 -6.1875 C 13.734375 -4.78125 13.515625 -3.59375 13.078125 -2.625 C 12.648438 -1.664062 12.050781 -0.945312 11.28125 -0.46875 C 10.519531 0 9.644531 0.234375 8.65625 0.234375 Z M 7.71875 -2.40625 C 8.625 -2.40625 9.316406 -2.707031 9.796875 -3.3125 C 10.273438 -3.925781 10.515625 -4.882812 10.515625 -6.1875 C 10.515625 -7.5 10.273438 -8.457031 9.796875 -9.0625 C 9.316406 -9.675781 8.625 -9.984375 7.71875 -9.984375 C 6.84375 -9.984375 6.144531 -9.664062 5.625 -9.03125 C 5.113281 -8.40625 4.859375 -7.457031 4.859375 -6.1875 C 4.859375 -4.914062 5.113281 -3.96875 5.625 -3.34375 C 6.144531 -2.71875 6.84375 -2.40625 7.71875 -2.40625 Z M 7.71875 -2.40625 "/></g></g></g><g fill="#000000" fill-opacity="1"><g transform="translate(308.329678, 186.122152)"><g><path d="M 5.796875 0.234375 C 4.953125 0.234375 4.175781 0.132812 3.46875 -0.0625 C 2.769531 -0.257812 2.171875 -0.53125 1.671875 -0.875 C 1.171875 -1.226562 0.800781 -1.628906 0.5625 -2.078125 L 2.296875 -3.9375 L 2.53125 -3.9375 C 2.9375 -3.382812 3.421875 -2.96875 3.984375 -2.6875 C 4.546875 -2.414062 5.15625 -2.28125 5.8125 -2.28125 C 6.425781 -2.28125 6.882812 -2.390625 7.1875 -2.609375 C 7.488281 -2.828125 7.640625 -3.132812 7.640625 -3.53125 C 7.640625 -3.851562 7.53125 -4.117188 7.3125 -4.328125 C 7.09375 -4.546875 6.738281 -4.710938 6.25 -4.828125 L 4.609375 -5.21875 C 3.378906 -5.507812 2.476562 -5.957031 1.90625 -6.5625 C 1.34375 -7.164062 1.0625 -7.929688 1.0625 -8.859375 C 1.0625 -9.628906 1.257812 -10.296875 1.65625 -10.859375 C 2.050781 -11.429688 2.601562 -11.867188 3.3125 -12.171875 C 4.03125 -12.472656 4.863281 -12.625 5.8125 -12.625 C 6.925781 -12.625 7.847656 -12.460938 8.578125 -12.140625 C 9.316406 -11.816406 9.894531 -11.382812 10.3125 -10.84375 L 8.640625 -9.046875 L 8.421875 -9.046875 C 8.078125 -9.441406 7.6875 -9.726562 7.25 -9.90625 C 6.820312 -10.082031 6.34375 -10.171875 5.8125 -10.171875 C 4.582031 -10.171875 3.96875 -9.789062 3.96875 -9.03125 C 3.96875 -8.707031 4.082031 -8.441406 4.3125 -8.234375 C 4.539062 -8.035156 4.945312 -7.875 5.53125 -7.75 L 7.046875 -7.40625 C 8.304688 -7.144531 9.226562 -6.710938 9.8125 -6.109375 C 10.394531 -5.515625 10.6875 -4.71875 10.6875 -3.71875 C 10.6875 -2.925781 10.488281 -2.226562 10.09375 -1.625 C 9.707031 -1.03125 9.144531 -0.570312 8.40625 -0.25 C 7.675781 0.0703125 6.804688 0.234375 5.796875 0.234375 Z M 5.796875 0.234375 "/></g></g></g><g fill="#000000" fill-opacity="1"><g transform="translate(319.747184, 186.122152)"><g><path d="M 7.203125 0.234375 C 5.984375 0.234375 4.914062 -0.015625 4 -0.515625 C 3.082031 -1.015625 2.367188 -1.742188 1.859375 -2.703125 C 1.359375 -3.660156 1.109375 -4.820312 1.109375 -6.1875 C 1.109375 -7.550781 1.359375 -8.710938 1.859375 -9.671875 C 2.367188 -10.640625 3.082031 -11.375 4 -11.875 C 4.914062 -12.375 5.984375 -12.625 7.203125 -12.625 C 8.410156 -12.625 9.472656 -12.375 10.390625 -11.875 C 11.304688 -11.375 12.019531 -10.640625 12.53125 -9.671875 C 13.039062 -8.710938 13.296875 -7.550781 13.296875 -6.1875 C 13.296875 -4.820312 13.039062 -3.660156 12.53125 -2.703125 C 12.019531 -1.742188 11.304688 -1.015625 10.390625 -0.515625 C 9.472656 -0.015625 8.410156 0.234375 7.203125 0.234375 Z M 7.203125 -2.40625 C 9.117188 -2.40625 10.078125 -3.664062 10.078125 -6.1875 C 10.078125 -7.5 9.832031 -8.457031 9.34375 -9.0625 C 8.851562 -9.675781 8.140625 -9.984375 7.203125 -9.984375 C 5.273438 -9.984375 4.3125 -8.71875 4.3125 -6.1875 C 4.3125 -3.664062 5.273438 -2.40625 7.203125 -2.40625 Z M 7.203125 -2.40625 "/></g></g></g><g fill="#000000" fill-opacity="1"><g transform="translate(334.139753, 186.122152)"><g><path d="M 5.140625 0.234375 C 4.023438 0.234375 3.171875 -0.0664062 2.578125 -0.671875 C 1.992188 -1.273438 1.703125 -2.191406 1.703125 -3.421875 L 1.703125 -17.359375 L 4.8125 -17.359375 L 4.8125 -3.53125 C 4.8125 -2.78125 5.128906 -2.40625 5.765625 -2.40625 C 5.941406 -2.40625 6.128906 -2.4375 6.328125 -2.5 L 6.484375 -2.453125 L 6.765625 -0.0625 C 6.597656 0.03125 6.367188 0.101562 6.078125 0.15625 C 5.796875 0.207031 5.484375 0.234375 5.140625 0.234375 Z M 5.140625 0.234375 "/></g></g></g><g fill="#000000" fill-opacity="1"><g transform="translate(341.257452, 186.122152)"><g><path d="M 5.671875 0.234375 C 4.273438 0.234375 3.242188 -0.144531 2.578125 -0.90625 C 1.921875 -1.664062 1.59375 -2.753906 1.59375 -4.171875 L 1.59375 -12.390625 L 4.703125 -12.390625 L 4.703125 -4.578125 C 4.703125 -3.816406 4.863281 -3.257812 5.1875 -2.90625 C 5.519531 -2.5625 6.023438 -2.390625 6.703125 -2.390625 C 7.566406 -2.390625 8.238281 -2.671875 8.71875 -3.234375 C 9.195312 -3.804688 9.4375 -4.695312 9.4375 -5.90625 L 9.4375 -12.390625 L 12.546875 -12.390625 L 12.546875 0 L 9.5625 0 L 9.5625 -1.8125 L 9.328125 -1.875 C 8.921875 -1.164062 8.429688 -0.632812 7.859375 -0.28125 C 7.296875 0.0625 6.566406 0.234375 5.671875 0.234375 Z M 5.671875 0.234375 "/></g></g></g><g fill="#000000" fill-opacity="1"><g transform="translate(355.582661, 186.122152)"><g><path d="M 8.546875 -2.953125 L 9.359375 -0.65625 C 9.015625 -0.375 8.585938 -0.15625 8.078125 0 C 7.578125 0.15625 7.003906 0.234375 6.359375 0.234375 C 5.015625 0.234375 3.992188 -0.128906 3.296875 -0.859375 C 2.597656 -1.585938 2.25 -2.648438 2.25 -4.046875 L 2.25 -9.921875 L 0.375 -9.921875 L 0.375 -12.40625 L 2.25 -12.40625 L 2.25 -14.8125 L 5.375 -15.3125 L 5.375 -12.40625 L 8.890625 -12.40625 L 8.890625 -9.921875 L 5.375 -9.921875 L 5.375 -4.265625 C 5.375 -3.648438 5.5 -3.203125 5.75 -2.921875 C 6 -2.640625 6.367188 -2.5 6.859375 -2.5 C 7.410156 -2.5 7.894531 -2.648438 8.3125 -2.953125 Z M 8.546875 -2.953125 "/></g></g></g><g fill="#000000" fill-opacity="1"><g transform="translate(365.203903, 186.122152)"><g><path d="M 12.234375 -5.484375 L 4.28125 -5.484375 C 4.363281 -4.410156 4.664062 -3.628906 5.1875 -3.140625 C 5.71875 -2.648438 6.4375 -2.40625 7.34375 -2.40625 C 8.050781 -2.40625 8.625 -2.535156 9.0625 -2.796875 C 9.507812 -3.066406 9.867188 -3.472656 10.140625 -4.015625 L 10.375 -4.015625 L 12.4375 -2.6875 C 12.039062 -1.8125 11.429688 -1.101562 10.609375 -0.5625 C 9.796875 -0.03125 8.707031 0.234375 7.34375 0.234375 C 6.0625 0.234375 4.953125 -0.00390625 4.015625 -0.484375 C 3.085938 -0.972656 2.367188 -1.695312 1.859375 -2.65625 C 1.359375 -3.625 1.109375 -4.800781 1.109375 -6.1875 C 1.109375 -7.59375 1.375 -8.78125 1.90625 -9.75 C 2.4375 -10.71875 3.15625 -11.4375 4.0625 -11.90625 C 4.96875 -12.382812 5.988281 -12.625 7.125 -12.625 C 8.875 -12.625 10.210938 -12.160156 11.140625 -11.234375 C 12.078125 -10.304688 12.546875 -8.941406 12.546875 -7.140625 C 12.546875 -6.492188 12.523438 -5.988281 12.484375 -5.625 Z M 9.5625 -7.5 C 9.539062 -8.445312 9.320312 -9.132812 8.90625 -9.5625 C 8.5 -9.988281 7.90625 -10.203125 7.125 -10.203125 C 5.550781 -10.203125 4.625 -9.300781 4.34375 -7.5 Z M 9.5625 -7.5 "/></g></g></g><g fill="#000000" fill-opacity="1"><g transform="translate(378.66466, 186.122152)"><g/></g></g><g fill="#000000" fill-opacity="1"><g transform="translate(384.087134, 186.122152)"><g><path d="M 12.734375 -10.25 L 12.734375 -16.421875 L 15.96875 -16.421875 L 15.96875 0 L 12.734375 0 L 12.734375 -7.484375 L 5.375 -7.484375 L 5.375 0 L 2.140625 0 L 2.140625 -16.421875 L 5.375 -16.421875 L 5.375 -10.25 Z M 12.734375 -10.25 "/></g></g></g><g fill="#000000" fill-opacity="1"><g transform="translate(402.195726, 186.122152)"><g><path d="M 12.234375 -5.484375 L 4.28125 -5.484375 C 4.363281 -4.410156 4.664062 -3.628906 5.1875 -3.140625 C 5.71875 -2.648438 6.4375 -2.40625 7.34375 -2.40625 C 8.050781 -2.40625 8.625 -2.535156 9.0625 -2.796875 C 9.507812 -3.066406 9.867188 -3.472656 10.140625 -4.015625 L 10.375 -4.015625 L 12.4375 -2.6875 C 12.039062 -1.8125 11.429688 -1.101562 10.609375 -0.5625 C 9.796875 -0.03125 8.707031 0.234375 7.34375 0.234375 C 6.0625 0.234375 4.953125 -0.00390625 4.015625 -0.484375 C 3.085938 -0.972656 2.367188 -1.695312 1.859375 -2.65625 C 1.359375 -3.625 1.109375 -4.800781 1.109375 -6.1875 C 1.109375 -7.59375 1.375 -8.78125 1.90625 -9.75 C 2.4375 -10.71875 3.15625 -11.4375 4.0625 -11.90625 C 4.96875 -12.382812 5.988281 -12.625 7.125 -12.625 C 8.875 -12.625 10.210938 -12.160156 11.140625 -11.234375 C 12.078125 -10.304688 12.546875 -8.941406 12.546875 -7.140625 C 12.546875 -6.492188 12.523438 -5.988281 12.484375 -5.625 Z M 9.5625 -7.5 C 9.539062 -8.445312 9.320312 -9.132812 8.90625 -9.5625 C 8.5 -9.988281 7.90625 -10.203125 7.125 -10.203125 C 5.550781 -10.203125 4.625 -9.300781 4.34375 -7.5 Z M 9.5625 -7.5 "/></g></g></g><g fill="#000000" fill-opacity="1"><g transform="translate(415.656483, 186.122152)"><g><path d="M 4.828125 0.234375 C 4.035156 0.234375 3.347656 0.0859375 2.765625 -0.203125 C 2.179688 -0.492188 1.726562 -0.921875 1.40625 -1.484375 C 1.09375 -2.054688 0.9375 -2.738281 0.9375 -3.53125 C 0.9375 -4.257812 1.09375 -4.875 1.40625 -5.375 C 1.726562 -5.875 2.21875 -6.28125 2.875 -6.59375 C 3.53125 -6.914062 4.390625 -7.160156 5.453125 -7.328125 C 6.191406 -7.453125 6.753906 -7.582031 7.140625 -7.71875 C 7.535156 -7.863281 7.796875 -8.023438 7.921875 -8.203125 C 8.054688 -8.390625 8.125 -8.617188 8.125 -8.890625 C 8.125 -9.285156 7.984375 -9.585938 7.703125 -9.796875 C 7.429688 -10.015625 6.972656 -10.125 6.328125 -10.125 C 5.640625 -10.125 4.984375 -9.96875 4.359375 -9.65625 C 3.742188 -9.351562 3.207031 -8.953125 2.75 -8.453125 L 2.53125 -8.453125 L 1.21875 -10.40625 C 1.851562 -11.101562 2.625 -11.644531 3.53125 -12.03125 C 4.4375 -12.425781 5.421875 -12.625 6.484375 -12.625 C 8.128906 -12.625 9.316406 -12.273438 10.046875 -11.578125 C 10.785156 -10.878906 11.15625 -9.890625 11.15625 -8.609375 L 11.15625 -3.234375 C 11.15625 -2.679688 11.394531 -2.40625 11.875 -2.40625 C 12.0625 -2.40625 12.25 -2.4375 12.4375 -2.5 L 12.59375 -2.453125 L 12.8125 -0.296875 C 12.644531 -0.179688 12.40625 -0.0859375 12.09375 -0.015625 C 11.789062 0.0546875 11.453125 0.09375 11.078125 0.09375 C 10.335938 0.09375 9.757812 -0.046875 9.34375 -0.328125 C 8.925781 -0.617188 8.628906 -1.066406 8.453125 -1.671875 L 8.21875 -1.703125 C 7.613281 -0.410156 6.484375 0.234375 4.828125 0.234375 Z M 5.8125 -2.09375 C 6.53125 -2.09375 7.101562 -2.332031 7.53125 -2.8125 C 7.96875 -3.289062 8.1875 -3.960938 8.1875 -4.828125 L 8.1875 -6.09375 L 7.96875 -6.125 C 7.78125 -5.976562 7.535156 -5.851562 7.234375 -5.75 C 6.929688 -5.65625 6.5 -5.554688 5.9375 -5.453125 C 5.257812 -5.347656 4.769531 -5.15625 4.46875 -4.875 C 4.175781 -4.601562 4.03125 -4.21875 4.03125 -3.71875 C 4.03125 -3.1875 4.1875 -2.78125 4.5 -2.5 C 4.8125 -2.226562 5.25 -2.09375 5.8125 -2.09375 Z M 5.8125 -2.09375 "/></g></g></g><g fill="#000000" fill-opacity="1"><g transform="translate(428.71308, 186.122152)"><g><path d="M 5.140625 0.234375 C 4.023438 0.234375 3.171875 -0.0664062 2.578125 -0.671875 C 1.992188 -1.273438 1.703125 -2.191406 1.703125 -3.421875 L 1.703125 -17.359375 L 4.8125 -17.359375 L 4.8125 -3.53125 C 4.8125 -2.78125 5.128906 -2.40625 5.765625 -2.40625 C 5.941406 -2.40625 6.128906 -2.4375 6.328125 -2.5 L 6.484375 -2.453125 L 6.765625 -0.0625 C 6.597656 0.03125 6.367188 0.101562 6.078125 0.15625 C 5.796875 0.207031 5.484375 0.234375 5.140625 0.234375 Z M 5.140625 0.234375 "/></g></g></g><g fill="#000000" fill-opacity="1"><g transform="translate(435.830778, 186.122152)"><g><path d="M 8.546875 -2.953125 L 9.359375 -0.65625 C 9.015625 -0.375 8.585938 -0.15625 8.078125 0 C 7.578125 0.15625 7.003906 0.234375 6.359375 0.234375 C 5.015625 0.234375 3.992188 -0.128906 3.296875 -0.859375 C 2.597656 -1.585938 2.25 -2.648438 2.25 -4.046875 L 2.25 -9.921875 L 0.375 -9.921875 L 0.375 -12.40625 L 2.25 -12.40625 L 2.25 -14.8125 L 5.375 -15.3125 L 5.375 -12.40625 L 8.890625 -12.40625 L 8.890625 -9.921875 L 5.375 -9.921875 L 5.375 -4.265625 C 5.375 -3.648438 5.5 -3.203125 5.75 -2.921875 C 6 -2.640625 6.367188 -2.5 6.859375 -2.5 C 7.410156 -2.5 7.894531 -2.648438 8.3125 -2.953125 Z M 8.546875 -2.953125 "/></g></g></g><g fill="#000000" fill-opacity="1"><g transform="translate(445.45202, 186.122152)"><g><path d="M 1.78125 0 L 1.78125 -17.359375 L 4.890625 -17.359375 L 4.890625 -10.765625 L 5.125 -10.71875 C 5.539062 -11.332031 6.046875 -11.800781 6.640625 -12.125 C 7.242188 -12.457031 7.96875 -12.625 8.8125 -12.625 C 11.550781 -12.625 12.921875 -11.070312 12.921875 -7.96875 L 12.921875 0 L 9.796875 0 L 9.796875 -7.578125 C 9.796875 -8.421875 9.628906 -9.035156 9.296875 -9.421875 C 8.960938 -9.804688 8.441406 -10 7.734375 -10 C 6.859375 -10 6.164062 -9.707031 5.65625 -9.125 C 5.144531 -8.539062 4.890625 -7.632812 4.890625 -6.40625 L 4.890625 0 Z M 1.78125 0 "/></g></g></g><g fill="#000000" fill-opacity="1"><g transform="translate(459.956856, 186.122152)"><g/></g></g><g fill="#000000" fill-opacity="1"><g transform="translate(465.379341, 186.122152)"><g><path d="M 6.71875 0.234375 C 5.53125 0.234375 4.488281 0.03125 3.59375 -0.375 C 2.695312 -0.78125 2.007812 -1.359375 1.53125 -2.109375 C 1.050781 -2.859375 0.8125 -3.734375 0.8125 -4.734375 C 0.8125 -5.816406 1.078125 -6.710938 1.609375 -7.421875 C 2.148438 -8.140625 2.960938 -8.726562 4.046875 -9.1875 L 4.078125 -9.421875 C 3.578125 -10.023438 3.21875 -10.582031 3 -11.09375 C 2.789062 -11.613281 2.6875 -12.179688 2.6875 -12.796875 C 2.6875 -13.546875 2.863281 -14.210938 3.21875 -14.796875 C 3.582031 -15.378906 4.101562 -15.832031 4.78125 -16.15625 C 5.46875 -16.488281 6.285156 -16.65625 7.234375 -16.65625 C 8.128906 -16.65625 8.894531 -16.503906 9.53125 -16.203125 C 10.175781 -15.898438 10.664062 -15.484375 11 -14.953125 C 11.34375 -14.421875 11.515625 -13.8125 11.515625 -13.125 C 11.515625 -12.1875 11.234375 -11.367188 10.671875 -10.671875 C 10.117188 -9.984375 9.253906 -9.414062 8.078125 -8.96875 L 8.046875 -8.734375 L 11.078125 -4.734375 C 11.265625 -5.117188 11.390625 -5.5625 11.453125 -6.0625 C 11.523438 -6.570312 11.5625 -7.144531 11.5625 -7.78125 L 11.5625 -8.359375 L 14.1875 -8.359375 C 14.1875 -6.046875 13.734375 -4.179688 12.828125 -2.765625 C 13.015625 -2.609375 13.175781 -2.5 13.3125 -2.4375 C 13.445312 -2.382812 13.597656 -2.359375 13.765625 -2.359375 C 13.921875 -2.359375 14.046875 -2.363281 14.140625 -2.375 C 14.242188 -2.394531 14.351562 -2.421875 14.46875 -2.453125 L 14.640625 -2.421875 L 15.03125 -0.15625 C 14.894531 -0.0625 14.691406 0.0078125 14.421875 0.0625 C 14.160156 0.113281 13.875 0.140625 13.5625 0.140625 C 13.007812 0.140625 12.523438 0.0507812 12.109375 -0.125 C 11.691406 -0.300781 11.296875 -0.578125 10.921875 -0.953125 L 10.6875 -0.953125 C 9.757812 -0.160156 8.4375 0.234375 6.71875 0.234375 Z M 6.703125 -10.515625 C 7.398438 -10.867188 7.90625 -11.222656 8.21875 -11.578125 C 8.53125 -11.929688 8.6875 -12.375 8.6875 -12.90625 C 8.6875 -13.363281 8.550781 -13.71875 8.28125 -13.96875 C 8.019531 -14.226562 7.660156 -14.359375 7.203125 -14.359375 C 6.734375 -14.359375 6.359375 -14.222656 6.078125 -13.953125 C 5.796875 -13.679688 5.65625 -13.3125 5.65625 -12.84375 C 5.65625 -12.476562 5.726562 -12.132812 5.875 -11.8125 C 6.03125 -11.5 6.304688 -11.066406 6.703125 -10.515625 Z M 7.109375 -2.4375 C 7.828125 -2.4375 8.441406 -2.578125 8.953125 -2.859375 L 5.296875 -7.5 C 4.867188 -7.21875 4.550781 -6.882812 4.34375 -6.5 C 4.132812 -6.113281 4.03125 -5.65625 4.03125 -5.125 C 4.03125 -4.59375 4.15625 -4.117188 4.40625 -3.703125 C 4.65625 -3.296875 5.007812 -2.984375 5.46875 -2.765625 C 5.9375 -2.546875 6.484375 -2.4375 7.109375 -2.4375 Z M 7.109375 -2.4375 "/></g></g></g><g fill="#000000" fill-opacity="1"><g transform="translate(480.714949, 186.122152)"><g/></g></g><g fill="#000000" fill-opacity="1"><g transform="translate(486.137411, 186.122152)"><g><path d="M 7.84375 0 L 4.21875 0 L 0.453125 -16.421875 L 3.6875 -16.421875 L 6.171875 -4.875 L 6.453125 -4.875 L 9.390625 -16.421875 L 12.15625 -16.421875 L 15.15625 -4.875 L 15.4375 -4.875 L 17.9375 -16.421875 L 21.0625 -16.421875 L 17.3125 0 L 13.671875 0 L 10.796875 -10.59375 L 10.5625 -10.59375 Z M 7.84375 0 "/></g></g></g><g fill="#000000" fill-opacity="1"><g transform="translate(507.625225, 186.122152)"><g><path d="M 12.234375 -5.484375 L 4.28125 -5.484375 C 4.363281 -4.410156 4.664062 -3.628906 5.1875 -3.140625 C 5.71875 -2.648438 6.4375 -2.40625 7.34375 -2.40625 C 8.050781 -2.40625 8.625 -2.535156 9.0625 -2.796875 C 9.507812 -3.066406 9.867188 -3.472656 10.140625 -4.015625 L 10.375 -4.015625 L 12.4375 -2.6875 C 12.039062 -1.8125 11.429688 -1.101562 10.609375 -0.5625 C 9.796875 -0.03125 8.707031 0.234375 7.34375 0.234375 C 6.0625 0.234375 4.953125 -0.00390625 4.015625 -0.484375 C 3.085938 -0.972656 2.367188 -1.695312 1.859375 -2.65625 C 1.359375 -3.625 1.109375 -4.800781 1.109375 -6.1875 C 1.109375 -7.59375 1.375 -8.78125 1.90625 -9.75 C 2.4375 -10.71875 3.15625 -11.4375 4.0625 -11.90625 C 4.96875 -12.382812 5.988281 -12.625 7.125 -12.625 C 8.875 -12.625 10.210938 -12.160156 11.140625 -11.234375 C 12.078125 -10.304688 12.546875 -8.941406 12.546875 -7.140625 C 12.546875 -6.492188 12.523438 -5.988281 12.484375 -5.625 Z M 9.5625 -7.5 C 9.539062 -8.445312 9.320312 -9.132812 8.90625 -9.5625 C 8.5 -9.988281 7.90625 -10.203125 7.125 -10.203125 C 5.550781 -10.203125 4.625 -9.300781 4.34375 -7.5 Z M 9.5625 -7.5 "/></g></g></g><g fill="#000000" fill-opacity="1"><g transform="translate(521.085971, 186.122152)"><g><path d="M 5.140625 0.234375 C 4.023438 0.234375 3.171875 -0.0664062 2.578125 -0.671875 C 1.992188 -1.273438 1.703125 -2.191406 1.703125 -3.421875 L 1.703125 -17.359375 L 4.8125 -17.359375 L 4.8125 -3.53125 C 4.8125 -2.78125 5.128906 -2.40625 5.765625 -2.40625 C 5.941406 -2.40625 6.128906 -2.4375 6.328125 -2.5 L 6.484375 -2.453125 L 6.765625 -0.0625 C 6.597656 0.03125 6.367188 0.101562 6.078125 0.15625 C 5.796875 0.207031 5.484375 0.234375 5.140625 0.234375 Z M 5.140625 0.234375 "/></g></g></g><g fill="#000000" fill-opacity="1"><g transform="translate(528.203669, 186.122152)"><g><path d="M 5.140625 0.234375 C 4.023438 0.234375 3.171875 -0.0664062 2.578125 -0.671875 C 1.992188 -1.273438 1.703125 -2.191406 1.703125 -3.421875 L 1.703125 -17.359375 L 4.8125 -17.359375 L 4.8125 -3.53125 C 4.8125 -2.78125 5.128906 -2.40625 5.765625 -2.40625 C 5.941406 -2.40625 6.128906 -2.4375 6.328125 -2.5 L 6.484375 -2.453125 L 6.765625 -0.0625 C 6.597656 0.03125 6.367188 0.101562 6.078125 0.15625 C 5.796875 0.207031 5.484375 0.234375 5.140625 0.234375 Z M 5.140625 0.234375 "/></g></g></g><g fill="#000000" fill-opacity="1"><g transform="translate(535.321367, 186.122152)"><g><path d="M 1.78125 0 L 1.78125 -12.390625 L 4.765625 -12.390625 L 4.765625 -10.5625 L 5.015625 -10.515625 C 5.785156 -11.921875 7.035156 -12.625 8.765625 -12.625 C 10.191406 -12.625 11.238281 -12.234375 11.90625 -11.453125 C 12.582031 -10.671875 12.921875 -9.535156 12.921875 -8.046875 L 12.921875 0 L 9.796875 0 L 9.796875 -7.671875 C 9.796875 -8.492188 9.628906 -9.085938 9.296875 -9.453125 C 8.972656 -9.816406 8.453125 -10 7.734375 -10 C 6.835938 -10 6.140625 -9.707031 5.640625 -9.125 C 5.140625 -8.550781 4.890625 -7.644531 4.890625 -6.40625 L 4.890625 0 Z M 1.78125 0 "/></g></g></g><g fill="#000000" fill-opacity="1"><g transform="translate(549.826203, 186.122152)"><g><path d="M 12.234375 -5.484375 L 4.28125 -5.484375 C 4.363281 -4.410156 4.664062 -3.628906 5.1875 -3.140625 C 5.71875 -2.648438 6.4375 -2.40625 7.34375 -2.40625 C 8.050781 -2.40625 8.625 -2.535156 9.0625 -2.796875 C 9.507812 -3.066406 9.867188 -3.472656 10.140625 -4.015625 L 10.375 -4.015625 L 12.4375 -2.6875 C 12.039062 -1.8125 11.429688 -1.101562 10.609375 -0.5625 C 9.796875 -0.03125 8.707031 0.234375 7.34375 0.234375 C 6.0625 0.234375 4.953125 -0.00390625 4.015625 -0.484375 C 3.085938 -0.972656 2.367188 -1.695312 1.859375 -2.65625 C 1.359375 -3.625 1.109375 -4.800781 1.109375 -6.1875 C 1.109375 -7.59375 1.375 -8.78125 1.90625 -9.75 C 2.4375 -10.71875 3.15625 -11.4375 4.0625 -11.90625 C 4.96875 -12.382812 5.988281 -12.625 7.125 -12.625 C 8.875 -12.625 10.210938 -12.160156 11.140625 -11.234375 C 12.078125 -10.304688 12.546875 -8.941406 12.546875 -7.140625 C 12.546875 -6.492188 12.523438 -5.988281 12.484375 -5.625 Z M 9.5625 -7.5 C 9.539062 -8.445312 9.320312 -9.132812 8.90625 -9.5625 C 8.5 -9.988281 7.90625 -10.203125 7.125 -10.203125 C 5.550781 -10.203125 4.625 -9.300781 4.34375 -7.5 Z M 9.5625 -7.5 "/></g></g></g><g fill="#000000" fill-opacity="1"><g transform="translate(563.286972, 186.122152)"><g><path d="M 5.796875 0.234375 C 4.953125 0.234375 4.175781 0.132812 3.46875 -0.0625 C 2.769531 -0.257812 2.171875 -0.53125 1.671875 -0.875 C 1.171875 -1.226562 0.800781 -1.628906 0.5625 -2.078125 L 2.296875 -3.9375 L 2.53125 -3.9375 C 2.9375 -3.382812 3.421875 -2.96875 3.984375 -2.6875 C 4.546875 -2.414062 5.15625 -2.28125 5.8125 -2.28125 C 6.425781 -2.28125 6.882812 -2.390625 7.1875 -2.609375 C 7.488281 -2.828125 7.640625 -3.132812 7.640625 -3.53125 C 7.640625 -3.851562 7.53125 -4.117188 7.3125 -4.328125 C 7.09375 -4.546875 6.738281 -4.710938 6.25 -4.828125 L 4.609375 -5.21875 C 3.378906 -5.507812 2.476562 -5.957031 1.90625 -6.5625 C 1.34375 -7.164062 1.0625 -7.929688 1.0625 -8.859375 C 1.0625 -9.628906 1.257812 -10.296875 1.65625 -10.859375 C 2.050781 -11.429688 2.601562 -11.867188 3.3125 -12.171875 C 4.03125 -12.472656 4.863281 -12.625 5.8125 -12.625 C 6.925781 -12.625 7.847656 -12.460938 8.578125 -12.140625 C 9.316406 -11.816406 9.894531 -11.382812 10.3125 -10.84375 L 8.640625 -9.046875 L 8.421875 -9.046875 C 8.078125 -9.441406 7.6875 -9.726562 7.25 -9.90625 C 6.820312 -10.082031 6.34375 -10.171875 5.8125 -10.171875 C 4.582031 -10.171875 3.96875 -9.789062 3.96875 -9.03125 C 3.96875 -8.707031 4.082031 -8.441406 4.3125 -8.234375 C 4.539062 -8.035156 4.945312 -7.875 5.53125 -7.75 L 7.046875 -7.40625 C 8.304688 -7.144531 9.226562 -6.710938 9.8125 -6.109375 C 10.394531 -5.515625 10.6875 -4.71875 10.6875 -3.71875 C 10.6875 -2.925781 10.488281 -2.226562 10.09375 -1.625 C 9.707031 -1.03125 9.144531 -0.570312 8.40625 -0.25 C 7.675781 0.0703125 6.804688 0.234375 5.796875 0.234375 Z M 5.796875 0.234375 "/></g></g></g><g fill="#000000" fill-opacity="1"><g transform="translate(574.704466, 186.122152)"><g><path d="M 5.796875 0.234375 C 4.953125 0.234375 4.175781 0.132812 3.46875 -0.0625 C 2.769531 -0.257812 2.171875 -0.53125 1.671875 -0.875 C 1.171875 -1.226562 0.800781 -1.628906 0.5625 -2.078125 L 2.296875 -3.9375 L 2.53125 -3.9375 C 2.9375 -3.382812 3.421875 -2.96875 3.984375 -2.6875 C 4.546875 -2.414062 5.15625 -2.28125 5.8125 -2.28125 C 6.425781 -2.28125 6.882812 -2.390625 7.1875 -2.609375 C 7.488281 -2.828125 7.640625 -3.132812 7.640625 -3.53125 C 7.640625 -3.851562 7.53125 -4.117188 7.3125 -4.328125 C 7.09375 -4.546875 6.738281 -4.710938 6.25 -4.828125 L 4.609375 -5.21875 C 3.378906 -5.507812 2.476562 -5.957031 1.90625 -6.5625 C 1.34375 -7.164062 1.0625 -7.929688 1.0625 -8.859375 C 1.0625 -9.628906 1.257812 -10.296875 1.65625 -10.859375 C 2.050781 -11.429688 2.601562 -11.867188 3.3125 -12.171875 C 4.03125 -12.472656 4.863281 -12.625 5.8125 -12.625 C 6.925781 -12.625 7.847656 -12.460938 8.578125 -12.140625 C 9.316406 -11.816406 9.894531 -11.382812 10.3125 -10.84375 L 8.640625 -9.046875 L 8.421875 -9.046875 C 8.078125 -9.441406 7.6875 -9.726562 7.25 -9.90625 C 6.820312 -10.082031 6.34375 -10.171875 5.8125 -10.171875 C 4.582031 -10.171875 3.96875 -9.789062 3.96875 -9.03125 C 3.96875 -8.707031 4.082031 -8.441406 4.3125 -8.234375 C 4.539062 -8.035156 4.945312 -7.875 5.53125 -7.75 L 7.046875 -7.40625 C 8.304688 -7.144531 9.226562 -6.710938 9.8125 -6.109375 C 10.394531 -5.515625 10.6875 -4.71875 10.6875 -3.71875 C 10.6875 -2.925781 10.488281 -2.226562 10.09375 -1.625 C 9.707031 -1.03125 9.144531 -0.570312 8.40625 -0.25 C 7.675781 0.0703125 6.804688 0.234375 5.796875 0.234375 Z M 5.796875 0.234375 "/></g></g></g></svg>